<?xml version="1.0" encoding="UTF-8"?> <svg xmlns="http://www.w3.org/2000/svg" xmlns:xlink="http://www.w3.org/1999/xlink" width="287.61" height="138.57" viewBox="0 0 287.61 138.57"><defs><style> .cls-1 { fill: #f9f5e3; } .cls-2, .cls-3, .cls-4, .cls-5, .cls-6, .cls-7, .cls-8, .cls-9 { mix-blend-mode: multiply; } .cls-2, .cls-10 { fill: #ecebd8; } .cls-11 { stroke: #2175bb; stroke-miterlimit: 10; stroke-width: 1.48px; } .cls-11, .cls-12 { fill: none; } .cls-13, .cls-14, .cls-15 { fill: #fff; } .cls-16 { fill: #e1e0b9; } .cls-3 { opacity: .51; } .cls-3, .cls-17 { fill: #a8a8ab; } .cls-18 { fill: #b4c035; } .cls-14 { opacity: .38; } .cls-19 { opacity: .5; } .cls-4 { fill: #ccc9c2; opacity: .31; } .cls-5 { opacity: .44; } .cls-5, .cls-6, .cls-20 { fill: #2175bb; } .cls-21 { isolation: isolate; } .cls-22 { clip-path: url(#clippath-1); } .cls-15, .cls-23 { mix-blend-mode: soft-light; } .cls-6 { opacity: .48; } .cls-24 { fill: #5b4b43; } .cls-25 { opacity: .19; } .cls-26 { opacity: .3; } .cls-27 { fill: #ebead7; } .cls-23 { fill: #010101; } .cls-7 { fill: #6e6f72; } .cls-7, .cls-9 { opacity: .6; } .cls-28 { fill: #2fb0e6; } .cls-29 { fill: #11afe5; } .cls-30 { clip-path: url(#clippath); } .cls-31 { fill: #d81f5e; } .cls-32 { fill: #43c7f1; } .cls-33 { fill: #129dd9; } .cls-34 { fill: #0e90d0; } .cls-35 { fill: #19124a; } .cls-36 { fill: #a6a7aa; } .cls-37 { fill: #362e45; } .cls-38 { opacity: .25; } .cls-9 { fill: #5a5a5c; } </style><clipPath id="clippath"><path class="cls-24" d="M213.86,130.45c-1.5-.54-5.09-1.97-8.54-2.51-2.35-.37-6.15-.37-7.12-.9-.98-.53,1.49-4.52,4.61-6.03,4.93-2.4,12.95-2.36,15.33,4.76,.33,2.33-4.27,4.68-4.27,4.68Z"></path></clipPath><clipPath id="clippath-1"><path class="cls-12" d="M214.06,129.59c-1.01,.65-3.66,1.87-6.15,2.77-1.69,.61-4.32,1.51-4.97,2.05-.65,.53,1.79,3.14,4.32,3.81,4.02,1.06,9.97-.13,10.67-5.78-.11-1.78-3.87-2.85-3.87-2.85Z"></path></clipPath></defs><g class="cls-21"><g id="Layer_2" data-name="Layer 2"><g id="Layer_1-2" data-name="Layer 1"><g><g><g><path class="cls-35" d="M19.07,33.83h10.44l18.27,50.09h-11.85l-3.88-11.22h-15.59l-3.81,11.22H.8L19.07,33.83Zm11.08,30.9l-5.86-17.71-6,17.71h11.85Z"></path><path class="cls-35" d="M51.67,32.41h11.29v38.31c0,2.82,1.2,4.23,3.6,4.23,.56,0,1.19-.08,1.87-.25,.68-.16,1.31-.41,1.87-.74l1.48,8.47c-1.41,.66-3.03,1.18-4.87,1.55-1.83,.38-3.55,.56-5.15,.56-3.25,0-5.74-.85-7.48-2.54-1.74-1.69-2.61-4.14-2.61-7.34V32.41Z"></path><path class="cls-35" d="M75.44,42.64v-10.23h11.29v10.23h-11.29Zm0,41.27V46.88h11.29v37.04h-11.29Z"></path><path class="cls-35" d="M92.3,65.36c0-2.54,.45-4.97,1.34-7.3,.89-2.33,2.19-4.37,3.88-6.14,1.69-1.76,3.77-3.16,6.24-4.2,2.47-1.03,5.28-1.55,8.43-1.55,4.28,0,7.88,.91,10.79,2.72,2.92,1.81,5.1,4.17,6.56,7.09l-11.01,3.32c-1.46-2.35-3.6-3.53-6.42-3.53-2.35,0-4.32,.87-5.89,2.61-1.58,1.74-2.36,4.07-2.36,6.99,0,1.46,.21,2.79,.63,3.99,.42,1.2,1.01,2.22,1.76,3.07,.75,.85,1.63,1.51,2.65,1.98,1.01,.47,2.08,.71,3.21,.71,1.41,0,2.7-.34,3.88-1.02,1.18-.68,2.05-1.56,2.61-2.65l11.01,3.39c-1.36,2.87-3.54,5.22-6.53,7.06-2.99,1.83-6.62,2.75-10.9,2.75-3.1,0-5.89-.53-8.36-1.59-2.47-1.06-4.56-2.47-6.28-4.23-1.72-1.76-3.02-3.81-3.92-6.14-.89-2.33-1.34-4.76-1.34-7.3Z"></path><path class="cls-35" d="M152.06,84.62c-3.1,0-5.89-.51-8.36-1.52-2.47-1.01-4.56-2.39-6.28-4.13-1.72-1.74-3.02-3.75-3.92-6.03-.89-2.28-1.34-4.67-1.34-7.16,0-2.68,.45-5.21,1.34-7.58,.89-2.37,2.19-4.46,3.88-6.24,1.69-1.79,3.77-3.2,6.24-4.23,2.47-1.03,5.28-1.55,8.43-1.55s5.95,.52,8.4,1.55c2.45,1.04,4.52,2.43,6.21,4.2,1.69,1.76,2.97,3.8,3.84,6.1,.87,2.3,1.31,4.73,1.31,7.27,0,.66-.02,1.31-.07,1.94-.05,.63-.12,1.19-.21,1.66h-27.37c.19,2.49,1.09,4.39,2.72,5.68,1.62,1.29,3.47,1.94,5.54,1.94,1.65,0,3.23-.4,4.76-1.2,1.53-.8,2.55-1.88,3.07-3.25l9.6,2.68c-1.46,2.92-3.72,5.29-6.77,7.13-3.06,1.83-6.73,2.75-11.01,2.75Zm7.83-22.72c-.24-2.35-1.08-4.21-2.54-5.57-1.46-1.36-3.27-2.05-5.43-2.05s-4.03,.69-5.47,2.08c-1.44,1.39-2.27,3.23-2.5,5.54h15.94Z"></path></g><path class="cls-32" d="M166.03,106.73H4.7c-2.6,0-4.7-2.11-4.7-4.7H0c0-2.6,2.11-4.7,4.7-4.7H166.03c2.6,0,4.7,2.11,4.7,4.7h0c0,2.6-2.11,4.7-4.7,4.7Z"></path><path class="cls-29" d="M166.03,106.73H56.91c-2.6,0-4.7-2.11-4.7-4.7h0c0-2.6,2.11-4.7,4.7-4.7h109.12c2.6,0,4.7,2.11,4.7,4.7h0c0,2.6-2.11,4.7-4.7,4.7Z"></path><path class="cls-33" d="M166.03,106.73h-57.62c-2.6,0-4.7-2.11-4.7-4.7h0c0-2.6,2.11-4.7,4.7-4.7h57.62c2.6,0,4.7,2.11,4.7,4.7h0c0,2.6-2.11,4.7-4.7,4.7Z"></path></g><g><path class="cls-28" d="M254.74,118.54s29.63-11.22,31.87-58.6c.4-8.42,6.78-38.5-18.76-53.77-10.02-5.99-22.06-7.59-33.43-4.96-7.63,1.77-16.27,5.36-21.97,12.61-10.31,13.12-8.97,37.6-8.5,50.17,.16,4.2,5.18,24.47,7.35,26.93,12.67,14.41,43.44,27.6,43.44,27.6Z"></path><g><polygon class="cls-10" points="203.33 122.8 214.57 123.86 221.66 100.15 213.36 81.14 207.02 89.47 207.02 89.47 203.33 122.8"></polygon><g class="cls-26"><polygon points="221.66 100.15 214.57 123.86 209.9 123.42 218.11 92.03 221.66 100.15"></polygon></g><path class="cls-13" d="M218.01,92.17c.1,.03-1.42,6.19-3.4,13.76-1.98,7.58-3.67,13.69-3.78,13.66-.1-.03,1.42-6.19,3.4-13.76,1.98-7.57,3.67-13.69,3.78-13.66Z"></path><path class="cls-13" d="M214.1,116.17c.05,.09,.01,.2-.08,.25-.09,.05-.2,.01-.25-.08-.05-.09-.01-.2,.08-.25,.09-.05,.2-.01,.25,.08Z"></path><path class="cls-13" d="M215.94,108.79c.05,.09,.01,.2-.08,.25-.09,.05-.2,.01-.25-.08-.05-.09-.01-.2,.08-.25,.09-.05,.2-.01,.25,.08Z"></path><path class="cls-13" d="M217.77,101.4c.05,.09,.01,.2-.08,.25-.09,.05-.2,.01-.25-.08-.05-.09-.01-.2,.08-.25,.09-.05,.2-.01,.25,.08Z"></path></g><path class="cls-38" d="M241.76,108.77c0,.34,.28,.61,.61,.61,.34,0,.61-.28,.61-.61,0-.34-.28-.61-.61-.61-.34,0-.61,.28-.61,.61Z"></path><g><path class="cls-20" d="M253.62,123.85l-26.37,.29c-3.52,.04-6.41-2.78-6.45-6.31h0c-.04-3.52,2.78-6.41,6.31-6.45l26.37-.29c3.52-.04,6.41,2.78,6.45,6.31h0c.04,3.52-2.78,6.41-6.31,6.45Z"></path><path class="cls-9" d="M253.06,111.93s-1.65,1.85-1.45,6.41,1.88,5,1.88,5c0,0,3.95-.65,4.52-4.31,.57-3.66-2.05-6.83-4.95-7.1Z"></path></g><path class="cls-9" d="M255.17,112.36s-2.48,3.99,0,7.23h-32.87s-1.2-2.91,1.08-6.15l31.79-1.08Z"></path><g><path class="cls-34" d="M197.79,83.86c0,9.44,7.65,17.09,17.08,17.09s17.09-7.65,17.09-17.09-7.65-17.08-17.09-17.08-17.08,7.65-17.08,17.08Z"></path><polyline class="cls-11" points="202.57 94.51 213.13 92.12 214.56 94.51 221.69 93.32 222.28 90.51 230.58 88.8"></polyline><path class="cls-23" d="M224.68,70.65c-8.47-.43-11.4,9.02-15.15,18.03-2.38,5.72,2.28,12.05,8.4,11.14,2.66-.4,5.49-1.54,8.21-3.96,7.98-7.09,12.15-23.8-1.47-25.21Z"></path><path class="cls-15" d="M210.79,75.05c0,1.62-1.31,2.93-2.93,2.93s-2.93-1.31-2.93-2.93,1.31-2.93,2.93-2.93,2.93,1.31,2.93,2.93Z"></path></g><path class="cls-34" d="M220.7,113.3c-3.2-8.72-3.65-11.7-3.35-25.9,0-12.28,9.95-22.23,22.23-22.23h2.42c10.42,0,19.16,7.16,21.57,16.83,.64,2.56,.67,5.24,.2,7.83-2.09,11.62-4.58,.67-2.56,14.33,2.41,16.37-39.67,11.43-40.51,9.14Z"></path><path class="cls-6" d="M248.02,93.95s12.05,10.72-.68,21.29c0,0,14.45-1.87,13.74-9.64-.25-2.7-.86-6.72-.11-10.28,0,0-2.4,4.97-12.95-1.37Z"></path><path class="cls-6" d="M249.64,94.45s6.33,6.01,10.64,2.8l.86,7.05s-8.77-3.02-11.51-9.85Z"></path><path class="cls-1" d="M228.85,68.24s-17.26,8.63-6.26,45.95c7.3,1.74,15.75,2.27,24.06,1.08,0,0-11.54-26.43,1.62-49.08,0,0-11.65-3.34-19.42,2.05Z"></path><path class="cls-2" d="M230.87,69.35s.57,4.97,5.61,5.22c5.03,.25,7.05-4.07,7.05-4.07,0,0-4.17-6.9-12.66-1.15Z"></path><path class="cls-10" d="M223.68,73.42s-6.1,18.27,.87,28.55c6.97,10.28,8.54-.52,11.32,2.96,2.79,3.48,9.06,10.66,9.06,10.66-7.39,.7-14.85,.42-22.44-1.29,0,0-9.06-25.67,1.19-40.88Z"></path><rect class="cls-10" x="232.79" y="48.27" width="10.66" height="24.57" rx="4.43" ry="4.43" transform="translate(8.49 -26.84) rotate(6.57)"></rect><polygon class="cls-4" points="232.92 58.72 232.36 64.1 243.3 61.85 243.74 58.6 232.92 58.72"></polygon><g><polygon class="cls-10" points="278.08 122.86 266.77 125.02 256.26 97.27 260.91 91.07 271.79 87.86 271.79 87.86 278.08 122.86"></polygon><g class="cls-26"><polygon points="256.26 97.27 266.77 125.02 271.47 124.12 260.74 91.6 256.26 97.27"></polygon></g><path class="cls-13" d="M260.85,91.73c.1-.04,2.29,6.29,4.88,14.14,2.59,7.85,4.61,14.24,4.5,14.28-.1,.04-2.29-6.29-4.88-14.14-2.59-7.85-4.6-14.24-4.5-14.28Z"></path><path class="cls-13" d="M266.66,116.83c-.04,.1,0,.22,.1,.26,.1,.04,.21,0,.25-.11,.04-.1,0-.22-.1-.26-.1-.04-.21,0-.25,.11Z"></path><path class="cls-13" d="M264.23,109.17c-.04,.1,0,.22,.1,.26,.1,.04,.21,0,.25-.11,.04-.1,0-.22-.1-.26-.1-.04-.21,0-.25,.11Z"></path><path class="cls-13" d="M261.8,101.5c-.04,.1,0,.22,.1,.26,.1,.04,.21,0,.25-.11,.04-.1,0-.22-.1-.26-.1-.04-.21,0-.25,.11Z"></path></g><g><circle class="cls-34" cx="261.38" cy="82.13" r="17.09" transform="translate(-9.38 124.03) rotate(-26.24)"></circle><polyline class="cls-11" points="253.46 96.36 262.57 90.49 264.73 92.25 271.02 88.69 270.61 85.85 277.83 81.4"></polyline><path class="cls-23" d="M267.13,67.57s7.85,11.69,.45,21.65c-7.4,9.96-15.91,5.8-15.91,5.8,0,0,10.26,6.2,19.11,.23,8.85-5.98,9.52-23.94-3.65-27.67Z"></path><path class="cls-15" d="M258.54,73.9c0,1.62-1.31,2.93-2.93,2.93s-2.93-1.31-2.93-2.93,1.31-2.93,2.93-2.93,2.93,1.31,2.93,2.93Z"></path></g><g class="cls-19"><path class="cls-16" d="M222.41,115.91c-.41,1.48-.59,3.88,.37,5.32,.19,.3,.6,.06,.61-.2,.01-.79-.25-1.62-.29-2.42-.05-.87,.02-1.73,.25-2.55,.16-.58-.79-.66-.93-.15Z"></path></g><path class="cls-20" d="M248.27,66.19c-6.3,14.11-7.31,28.11-3.41,43.03,.49,2.04,1.09,4.07,1.79,6.06-6.84-16.01-6.78-33.68,1.62-49.08h0Z"></path><path class="cls-38" d="M240.76,102.87c0,.34,.28,.61,.61,.61,.34,0,.61-.28,.61-.61,0-.34-.28-.61-.61-.61-.34,0-.61,.28-.61,.61Z"></path><path class="cls-38" d="M239.6,95.25c0,.34,.28,.61,.61,.61,.34,0,.61-.28,.61-.61,0-.34-.28-.61-.61-.61-.34,0-.61,.28-.61,.61Z"></path><path class="cls-38" d="M239.46,87.62c0,.34,.28,.61,.61,.61,.34,0,.61-.28,.61-.61,0-.34-.28-.61-.61-.61-.34,0-.61,.28-.61,.61Z"></path><path class="cls-38" d="M240.76,79.42c0,.34,.28,.61,.61,.61,.34,0,.61-.28,.61-.61,0-.34-.28-.61-.61-.61-.34,0-.61,.28-.61,.61Z"></path><path class="cls-38" d="M243.2,72.38c0,.34,.28,.61,.61,.61,.34,0,.61-.28,.61-.61,0-.34-.28-.61-.61-.61-.34,0-.61,.28-.61,.61Z"></path><path class="cls-38" d="M242.19,110.35c0,.34,.28,.61,.61,.61,.34,0,.61-.28,.61-.61,0-.34-.28-.61-.61-.61-.34,0-.61,.28-.61,.61Z"></path><path class="cls-38" d="M220.77,103.53c-.02,.34,.23,.63,.57,.65,.34,.02,.63-.23,.65-.57,.02-.34-.23-.63-.57-.65-.34-.02-.63,.23-.65,.57Z"></path><path class="cls-38" d="M220.12,95.85c-.02,.34,.23,.63,.57,.65,.34,.02,.63-.23,.65-.57,.02-.34-.23-.63-.57-.65-.34-.02-.63,.23-.65,.57Z"></path><path class="cls-38" d="M220.48,88.23c-.02,.34,.23,.63,.57,.65,.34,.02,.63-.23,.65-.57,.02-.34-.23-.63-.57-.65-.34-.02-.63,.23-.65,.57Z"></path><path class="cls-38" d="M222.31,80.14c-.02,.34,.23,.63,.57,.65,.34,.02,.63-.23,.65-.57,.02-.34-.23-.63-.57-.65-.34-.02-.63,.23-.65,.57Z"></path><path class="cls-38" d="M225.21,73.27c-.02,.34,.23,.63,.57,.65,.34,.02,.63-.23,.65-.57,.02-.34-.23-.63-.57-.65-.34-.02-.63,.23-.65,.57Z"></path><path class="cls-38" d="M222.24,110.56c-.02,.34,.23,.63,.57,.65,.34,.02,.63-.23,.65-.57,.02-.34-.23-.63-.57-.65-.34-.02-.63,.23-.65,.57Z"></path><g><path class="cls-24" d="M264.33,120.48c-1.82,4.32,.2,9.31,4.53,11.13,4.32,1.82,9.31-.2,11.13-4.53,1.82-4.32-.2-9.31-4.53-11.13-4.32-1.82-9.31,.2-11.13,4.53Z"></path><path class="cls-7" d="M268.89,117.27s1.87,1.74,2.09,6.43c.22,4.7-1.46,5.3-1.46,5.3,0,0-4.11-.3-5.03-4-.92-3.7,1.47-7.19,4.41-7.74Z"></path><g class="cls-19"><path class="cls-16" d="M278.1,119.89c.72,1.26,1.44,3.41,.9,4.96-.11,.32-.54,.19-.6-.05-.2-.72-.15-1.54-.29-2.29-.16-.81-.42-1.58-.82-2.28-.28-.49,.57-.79,.82-.35Z"></path></g><g><path class="cls-1" d="M265.81,123.39c0-.26,.01-.53,.05-.8l-.36-.36,.37-1.18,.46,.05c.12-.23,.25-.43,.39-.62l-.03-.71,.75-.58,.23,.56c.17-.06,.34-.09,.51-.08l.31-.65,.69,.35-.13,.74c.12,.14,.23,.31,.32,.5l.47-.2,.23,1.08-.41,.49c0,.26-.01,.53-.05,.8l.36,.36-.37,1.17-.46-.05c-.12,.23-.25,.43-.39,.62l.03,.71-.75,.58-.23-.56c-.17,.06-.34,.09-.51,.08l-.31,.65-.69-.35,.13-.74c-.12-.14-.23-.31-.32-.5l-.47,.2-.23-1.08,.41-.49h0Zm1.11-.13c.13,.64,.6,.88,1.05,.53,.44-.34,.7-1.14,.56-1.78-.13-.64-.6-.88-1.05-.53-.44,.34-.7,1.14-.56,1.78Z"></path><path class="cls-1" d="M266.92,123.26s-.03-.09-.04-.3c-.01-.2,.01-.53,.15-.88,.07-.17,.17-.35,.3-.49,.13-.14,.28-.25,.44-.29,.08-.02,.16-.02,.24,0,.08,.02,.16,.06,.23,.12,.14,.12,.25,.32,.31,.58,.05,.26,.05,.56-.01,.83-.03,.14-.07,.27-.12,.39-.05,.12-.11,.23-.18,.32-.13,.19-.28,.31-.42,.38-.14,.07-.28,.07-.39,.04-.23-.06-.36-.27-.43-.43-.07-.16-.08-.27-.08-.27,0,0,.02,.1,.09,.25,.07,.15,.2,.34,.42,.39,.11,.03,.24,.02,.38-.05,.14-.07,.28-.19,.4-.37,.06-.09,.12-.19,.17-.31,.05-.11,.09-.24,.11-.37,.06-.26,.06-.54,.01-.78-.05-.24-.16-.44-.29-.55-.07-.06-.14-.09-.22-.11-.08-.02-.15-.02-.23,0-.15,.03-.3,.14-.42,.27-.12,.13-.22,.3-.29,.47-.14,.34-.17,.65-.16,.85,0,.2,.03,.3,.02,.31Z"></path><path class="cls-1" d="M265.81,123.39s0,.01-.02,.03c-.02,.02-.04,.05-.08,.09-.07,.09-.17,.21-.31,.37h0c.06,.26,.14,.62,.23,1.06h-.01c.14-.07,.3-.14,.47-.21h0s0,0,0,0c.08,.18,.19,.35,.32,.5h0s0,.02,0,.02c-.04,.23-.08,.48-.12,.74v-.03c.21,.11,.44,.23,.68,.35h-.02c.1-.19,.2-.41,.31-.63v-.02s.02,0,.02,0c.15,0,.33-.02,.5-.08h.01s0,.01,0,.01c.07,.17,.15,.36,.23,.56h-.02c.24-.19,.49-.39,.75-.59l-.02,.04c-.01-.22-.02-.47-.03-.71v-.02s.01-.01,.01-.01c.13-.17,.27-.38,.39-.61v-.02s.02,0,.02,0c.14,.02,.3,.03,.46,.05l-.03,.03c.12-.37,.24-.77,.37-1.18v.04c-.11-.11-.23-.24-.35-.36h-.01s0-.03,0-.03c.04-.25,.06-.52,.05-.78h0s0-.02,0-.02h.01c.14-.18,.28-.34,.41-.5v.05c-.09-.36-.16-.72-.24-1.08l.02,.02c-.16,.07-.32,.13-.47,.2h-.01s0-.01,0-.01c-.09-.19-.2-.36-.32-.5h-.01s0-.03,0-.03c.04-.25,.08-.5,.13-.74v.04c-.22-.12-.45-.24-.68-.35l.03-.02c-.11,.22-.21,.43-.31,.65v.02s-.02,0-.02,0c-.17,0-.34,.02-.5,.08h-.01s0-.01,0-.01c-.08-.19-.16-.38-.23-.56h.02c-.26,.21-.51,.4-.75,.59v-.03c.02,.25,.04,.49,.05,.71v.02s0,.01,0,.01c-.15,.19-.28,.4-.39,.61h0s0,.01,0,.01c-.17-.02-.31-.04-.46-.05l.02-.02c-.14,.45-.27,.84-.37,1.17v-.02c.14,.15,.26,.27,.35,.37h0s0,.01,0,.01c-.04,.27-.05,.47-.05,.6,0,.06,0,.11,0,.15,0,.03,0,.05,0,.05,0,0,0-.02,0-.05,0-.03,0-.08,0-.15,0-.13,0-.33,.05-.6h0c-.1-.09-.22-.21-.36-.35h0s0-.02,0-.02c.1-.33,.22-.72,.37-1.18v-.02s.02,0,.02,0c.14,.01,.29,.03,.46,.05h-.02c.11-.21,.24-.42,.4-.62v.03c-.02-.23-.03-.46-.04-.71v-.02s.01-.01,.01-.01c.24-.18,.49-.38,.75-.58h.02s0,0,0,0c.08,.18,.15,.37,.23,.56h-.02c.17-.07,.34-.1,.51-.09l-.02,.02c.1-.21,.2-.43,.31-.65v-.02s.03,0,.03,0c.22,.11,.45,.23,.69,.35h.02s0,.04,0,.04c-.04,.24-.08,.49-.13,.74v-.03c.12,.14,.23,.31,.32,.51h-.02c.16-.08,.31-.14,.47-.21h.02s0,.02,0,.02c.07,.35,.15,.71,.23,1.08v.03s-.01,.02-.01,.02c-.14,.16-.27,.32-.41,.49v-.04s.01,0,.01,0c0,.27-.01,.55-.05,.8v-.03c.12,.12,.24,.25,.35,.36h.01s0,.04,0,.04c-.13,.4-.25,.8-.37,1.17v.03s-.03,0-.03,0c-.16-.02-.31-.04-.46-.05l.02-.02c-.12,.24-.26,.45-.4,.63v-.04c.02,.25,.03,.49,.04,.71v.03s-.02,.01-.02,.01c-.26,.2-.51,.4-.75,.58h-.02s0,0,0,0c-.08-.19-.16-.39-.23-.56h.02c-.18,.08-.36,.1-.51,.09l.02-.02c-.11,.23-.21,.45-.31,.64v.02s-.02,0-.02,0c-.24-.12-.47-.24-.69-.35h-.01s0-.03,0-.03c.04-.26,.09-.51,.13-.74v.02c-.13-.15-.24-.33-.32-.51h.01c-.17,.08-.33,.14-.47,.2h0s0,0,0,0c-.09-.44-.17-.81-.22-1.08h0s0-.01,0-.01c.13-.15,.24-.27,.31-.36,.03-.04,.06-.07,.08-.09,.02-.02,.03-.03,.03-.03Z"></path></g></g><path class="cls-18" d="M241.33,42.86c-.09,0-.17,0-.26,0-3.37-.2-4.34-4.7-2.7-7.12,.56-.83,1.43-1.32,2.36-1.46,.07,0,.14-.02,.21-.02-1.19,.78-2.21,2.37-2.05,4.34,.15,1.98,.95,3.54,2.44,4.26Z"></path><path class="cls-18" d="M229.16,46.84h-.25c-3.37,0-4.34-6.82-2.7-9.24,.56-.83,1.44-2.37,2.37-2.51,.04,0,.07-.54,.11-.54,.02,0,.05-.27,.08-.27-1.19,.78-2.2,4.35-2.05,6.32,.16,1.99,.95,1.74,2.44,6.24Z"></path><g class="cls-8"><path class="cls-31" d="M236.18,53.09s-.07,0-.11,0c-1.46-.09-1.87-2.03-1.16-3.08,.24-.36,.62-.57,1.02-.63,.02,0,.03,0,.05,0,.01,0,.02,0,.03,0-.51,.34-.95,1.02-.88,1.87,.07,.86,.41,1.53,1.05,1.84Z"></path></g><circle class="cls-10" cx="239.38" cy="35.72" r="23.92" transform="translate(-1.94 54.2) rotate(-12.87)"></circle><path class="cls-37" d="M240.71,42.86c.08,0,.15,0,.23,0-1.34-.72-2.05-2.28-2.19-4.26-.14-1.98,.77-3.56,1.84-4.34,.08-.01,.17-.02,.26-.02,.75-.01,1.51,.25,2.11,.8,2.4,2.21,1.23,8.05-2.25,7.82Z"></path><path class="cls-28" d="M240.94,42.86c-.08,0-.15,0-.23,0-3.03-.2-3.89-4.7-2.42-7.12,.5-.83,1.29-1.32,2.12-1.46,.06,0,.12-.02,.19-.02-1.07,.78-1.98,2.37-1.84,4.34,.14,1.98,.85,3.54,2.19,4.26Z"></path><path class="cls-5" d="M280.02,62.6s9.15-50.89-39.83-60.53c-.75,1.5,56.68-2.71,39.83,60.53Z"></path><path class="cls-13" d="M243.11,36.9c0,.8-.41,1.46-.92,1.46s-.92-.65-.92-1.46,.41-1.46,.92-1.46,.92,.65,.92,1.46Z"></path><path class="cls-37" d="M227.84,42.86c.08,0,.15,0,.23,0-1.34-.72-2.05-2.28-2.19-4.26-.14-1.98,.77-3.56,1.84-4.34,.08-.01,.17-.02,.26-.02,.75-.01,1.51,.25,2.11,.8,2.4,2.21,1.23,8.05-2.25,7.82Z"></path><path class="cls-28" d="M228.07,42.86c-.08,0-.15,0-.23,0-3.03-.2-3.89-4.7-2.42-7.12,.5-.83,1.29-1.32,2.12-1.46,.06,0,.12-.02,.19-.02-1.07,.78-1.98,2.37-1.84,4.34,.14,1.98,.85,3.54,2.19,4.26Z"></path><path class="cls-13" d="M230.24,36.9c0,.8-.41,1.46-.92,1.46s-.92-.65-.92-1.46,.41-1.46,.92-1.46,.92,.65,.92,1.46Z"></path><path class="cls-38" d="M253.28,37.19c.14-.13,.14-.35,0-.49-.13-.14-.35-.14-.49,0-.14,.13-.14,.35,0,.49,.13,.14,.35,.14,.49,0Z"></path><path class="cls-38" d="M253.66,40.05c.14-.13,.14-.35,0-.49-.13-.14-.35-.14-.49,0-.14,.13-.14,.35,0,.49s.35,.14,.49,0Z"></path><path class="cls-38" d="M253.82,43.23c.14-.13,.14-.35,0-.49-.13-.14-.35-.14-.49,0-.14,.13-.14,.35,0,.49s.35,.14,.49,0Z"></path><path class="cls-38" d="M253.31,46.48c.14-.13,.14-.35,0-.49-.13-.14-.35-.14-.49,0-.14,.13-.14,.35,0,.49,.13,.14,.35,.14,.49,0Z"></path><path class="cls-38" d="M252.45,49.98c.14-.13,.14-.35,0-.49-.13-.14-.35-.14-.49,0s-.14,.35,0,.49,.35,.14,.49,0Z"></path><path class="cls-38" d="M250.83,52.79c.14-.13,.14-.35,0-.49-.13-.14-.35-.14-.49,0-.14,.13-.14,.35,0,.49,.13,.14,.35,.14,.49,0Z"></path><path class="cls-38" d="M248.89,55.43c.14-.13,.14-.35,0-.49-.13-.14-.35-.14-.49,0-.14,.13-.14,.35,0,.49,.13,.14,.35,.14,.49,0Z"></path><path class="cls-17" d="M246.22,58.42c9.83-6.82,9.52-20.86,4.7-30.67-1.63-3.37-3.81-6.54-6.64-9.03,2.94,2.38,5.24,5.51,6.94,8.88,5.05,9.81,5.26,24.3-5,30.81h0Z"></path><path class="cls-3" d="M222.09,16.69s35.44,29.11,39.76,23.48c4.32-5.63,4.5-16.66,4.5-16.66l-24.4-18.02-19.86,11.21Z"></path><path class="cls-28" d="M221.55,16.82s39.51,25.97,44.03,19.92c4.52-6.05,4.35-17.13,4.35-17.13l-27.14-15.85-21.24,13.06Z"></path><path class="cls-37" d="M228.63,50.42c2.15,1.48,9.58,1.53,14.21,.25,0,0-1.43,5.34,.91,8.3,0,0-6.04,1.48-13.69-1.88,0,0-2.33-3.15-1.43-6.67Z"></path><g><path class="cls-27" d="M227.92,52.19c2.46,1.59,9.16,2.28,13.23,.09,0,0-.41,3.48,2.62,6.72,0,0-5.88,1.94-13.92-.33,0,0-2.33-2.86-1.92-6.48Z"></path><path class="cls-14" d="M233.16,59.38s-.64-1.73,1.6-2.28c2.24-.55,3.56-2.23,3.68-3.83,0,0,1.45-.34,1.73-.54,.28-.2,.94-.39,.94-.39,0,0,.33,3.74,1.03,4.72,.7,.98,1.4,1.92,1.4,1.92,0,0-5.05,1.43-10.38,.4Z"></path><path class="cls-38" d="M228.7,54.68c0,.1,.09,.18,.18,.18,.1,0,.18-.09,.17-.19,0-.1-.09-.18-.18-.18-.1,0-.18,.09-.17,.19Z"></path><path class="cls-38" d="M229.04,56.11c0,.1,.09,.18,.19,.17,.1,0,.18-.09,.18-.19,0-.1-.09-.18-.19-.17-.1,0-.18,.09-.18,.19Z"></path><path class="cls-38" d="M229.58,57.45c0,.1,.09,.18,.19,.17,.1,0,.18-.09,.17-.18,0-.1-.09-.18-.18-.17-.1,0-.18,.09-.18,.18Z"></path><path class="cls-38" d="M240.42,54.82c0,.1,.09,.18,.18,.18,.1,0,.18-.09,.17-.18,0-.1-.09-.18-.18-.18-.1,0-.18,.09-.17,.18Z"></path><path class="cls-38" d="M240.76,56.25c0,.1,.09,.18,.18,.17,.1,0,.18-.09,.17-.18,0-.1-.09-.18-.18-.18-.1,0-.18,.09-.17,.18Z"></path><path class="cls-38" d="M241.31,57.59c0,.1,.09,.18,.19,.17,.1,0,.18-.09,.17-.18,0-.1-.09-.18-.18-.18-.1,0-.18,.09-.18,.19Z"></path><path class="cls-13" d="M241.14,52.28c.39,2.44,.91,4.84,2.62,6.72-2.12-1.48-2.8-4.26-2.62-6.72h0Z"></path><path class="cls-36" d="M228,52.43c.38,2.23,.62,4.45,1.88,6.39-1.69-1.61-2.1-4.16-1.88-6.39h0Z"></path></g><g><path class="cls-38" d="M239.94,121.17c-.3,.2-.38,.61-.17,.91,.2,.3,.61,.38,.91,.18,.3-.2,.38-.61,.17-.91-.2-.3-.61-.38-.91-.18Z"></path><path class="cls-38" d="M234.35,127.18c-.3,.2-.38,.61-.17,.91,.2,.3,.61,.38,.91,.18,.3-.2,.38-.61,.17-.91-.2-.3-.61-.38-.91-.18Z"></path><polygon class="cls-10" points="260.36 115.36 223.29 124.87 223.42 131.86 267.28 134.18 267.28 134.18 264.97 118.41 260.36 115.36"></polygon><g class="cls-26"><polygon points="228.28 132.12 231.86 126.08 265.18 118.43 260.36 115.36 223.29 124.87 223.42 131.86 228.28 132.12"></polygon></g><path class="cls-13" d="M228.28,132.12s.06-.16,.21-.45c.18-.33,.4-.74,.67-1.23,.64-1.12,1.5-2.62,2.55-4.45l.04-.06,.07-.02c3.53-.83,8.15-1.91,13.21-3.09,5.55-1.27,10.58-2.4,14.22-3.2,1.77-.38,3.23-.69,4.32-.92,.47-.09,.86-.17,1.18-.23,.27-.05,.42-.06,.42-.05,0,.02-.13,.06-.4,.14-.32,.08-.7,.19-1.16,.31-1.08,.27-2.53,.63-4.29,1.06-3.63,.88-8.64,2.05-14.19,3.33-5.07,1.14-9.7,2.18-13.24,2.98l.11-.08c-1.1,1.8-2.01,3.28-2.68,4.37-.3,.47-.55,.86-.75,1.18-.18,.27-.28,.4-.29,.39Z"></path><path class="cls-13" d="M242.73,122.04c-.07,.1-.05,.23,.05,.31,.1,.07,.24,.05,.31-.04,.07-.1,.05-.23-.05-.31-.1-.07-.24-.05-.31,.04Z"></path><path class="cls-13" d="M234.24,124.17c-.08-.09-.07-.23,.02-.31,.09-.08,.23-.07,.31,.02,.08,.09,.07,.23-.02,.31s-.23,.07-.31-.02Z"></path><path class="cls-13" d="M250.36,120.14c-.07,.1-.05,.23,.05,.31,.1,.07,.24,.05,.31-.04,.07-.1,.05-.23-.05-.31-.1-.07-.24-.05-.31,.04Z"></path></g><g><g><g><g><g class="cls-25"><path d="M213.86,130.45c-1.5-.54-5.09-1.97-8.54-2.51-2.35-.37-6.15-.37-7.12-.9-.98-.53,1.49-4.52,4.61-6.03,4.93-2.4,12.95-2.36,15.33,4.76,.33,2.33-4.27,4.68-4.27,4.68Z"></path></g><g><path class="cls-24" d="M213.86,130.45c-1.5-.54-5.09-1.97-8.54-2.51-2.35-.37-6.15-.37-7.12-.9-.98-.53,1.49-4.52,4.61-6.03,4.93-2.4,12.95-2.36,15.33,4.76,.33,2.33-4.27,4.68-4.27,4.68Z"></path><g class="cls-30"><g class="cls-25"><path d="M225.44,136.29c-.6,1.29-1.87,2.19-3.23,2.57-1.37,.38-2.84,.29-4.23-.02-2.68-.61-5.19-2.11-6.79-4.34-1.59-2.23-2.18-5.22-1.29-7.81,.89-2.59,3.34-4.64,6.08-4.81,1.85-.12,3.68,.58,5.26,1.54,1.78,1.08,3.37,2.55,4.37,4.38,1.37,2.51,1.52,5.65,.39,8.28"></path></g></g></g></g><g><path class="cls-24" d="M214.06,129.59c-1.01,.65-3.66,1.87-6.15,2.77-1.69,.61-4.32,1.51-4.97,2.05-.65,.53,1.79,3.14,4.32,3.81,4.02,1.06,9.97-.13,10.67-5.78-.11-1.78-3.87-2.85-3.87-2.85Z"></path><g class="cls-22"><g class="cls-25"><path d="M221.16,134.07c-.62,.88-1.68,1.38-2.76,1.48-1.07,.1-2.15-.16-3.15-.59-1.91-.82-3.58-2.27-4.47-4.15-.89-1.88-.92-4.18,.09-5.99,1.01-1.81,3.11-3.01,5.18-2.77,1.4,.16,2.66,.92,3.72,1.86,1.18,1.05,2.17,2.35,2.67,3.85,.68,2.06,.37,4.42-.83,6.22"></path></g></g></g><path class="cls-10" d="M225.66,129.96c-.13,7.27-10.91,7.35-11.92,.41-1.21-8.31,12.08-9.16,11.92-.41Z"></path></g><path class="cls-10" d="M205.58,120.85c2.01-.04,4.62-.31,6.39,.81,.46,.29-.02,1.09-.49,1.01-1.04-.19-2.02-.32-3.07-.33-1.04,0-2.1,.07-3.12-.13-.89-.18-.48-1.34,.29-1.36Z"></path></g><g><g class="cls-25"><path d="M217.86,126.19c.31-.17,.64-.29,.97-.36l.25-.93,1.59,.06,.18,.95c.33,.1,.65,.24,.94,.43l.83-.48,1.08,1.17-.54,.79c.17,.31,.29,.64,.36,.97l.93,.25-.06,1.59-.95,.18c-.1,.33-.24,.65-.43,.94l.48,.83-1.17,1.08-.79-.54c-.31,.17-.64,.29-.97,.36l-.25,.93-1.59-.06-.18-.95c-.33-.1-.65-.24-.94-.43l-.83,.48-1.08-1.17,.54-.79c-.16-.31-.28-.64-.36-.97l-.93-.25,.06-1.59,.95-.18c.1-.33,.24-.65,.43-.94l-.48-.83,1.17-1.08,.79,.54h0Zm.73,2.16c-.69,.64-.73,1.72-.09,2.41,.64,.69,1.72,.73,2.41,.09,.69-.64,.73-1.72,.09-2.41-.64-.69-1.72-.73-2.41-.09Z"></path></g><path class="cls-1" d="M218.46,128.32s.1-.12,.33-.26c.23-.14,.63-.28,1.13-.2,.24,.04,.51,.14,.74,.31,.23,.17,.45,.42,.57,.72,.07,.15,.11,.32,.13,.49,.02,.17,.02,.35-.02,.53-.06,.35-.25,.7-.53,.96-.28,.26-.64,.42-.99,.45-.18,.02-.36,.01-.53-.02-.17-.03-.33-.09-.48-.16-.3-.15-.52-.38-.68-.63-.16-.25-.23-.52-.25-.76-.04-.5,.13-.89,.29-1.11,.16-.23,.29-.31,.29-.31,0,0-.11,.11-.25,.33-.14,.22-.3,.6-.25,1.08,.03,.24,.1,.49,.25,.73,.15,.23,.37,.45,.65,.59,.14,.07,.29,.12,.45,.15,.16,.03,.33,.04,.5,.02,.34-.04,.67-.19,.94-.43,.26-.25,.44-.57,.5-.9,.03-.17,.04-.34,.02-.5-.02-.16-.06-.32-.12-.46-.12-.29-.32-.52-.54-.69-.22-.17-.47-.26-.7-.31-.47-.09-.86,.04-1.1,.17-.24,.13-.34,.24-.35,.23Z"></path><path class="cls-1" d="M217.86,126.19s-.02,0-.05-.03c-.04-.02-.09-.06-.15-.1-.14-.09-.34-.23-.6-.4h.02c-.3,.28-.69,.64-1.16,1.09v-.03c.15,.25,.32,.53,.49,.83v.02s0,.01,0,.01c-.17,.27-.32,.59-.43,.94v.02s-.02,0-.02,0c-.29,.06-.61,.12-.95,.18l.03-.03c-.02,.5-.04,1.03-.06,1.59l-.03-.04c.29,.08,.61,.16,.93,.25h.02s0,.03,0,.03c.07,.31,.19,.65,.36,.96v.02s0,.02,0,.02c-.17,.25-.35,.52-.54,.79v-.05c.34,.37,.7,.76,1.08,1.17h-.06c.26-.16,.54-.32,.83-.49h.02s.02,0,.02,0c.27,.17,.59,.32,.93,.43h.03s0,.04,0,.04c.06,.3,.12,.62,.18,.95l-.05-.04c.5,.02,1.04,.04,1.59,.06l-.05,.04c.08-.29,.16-.61,.25-.93v-.03s.04,0,.04,0c.32-.07,.65-.19,.96-.36h0s.03-.01,.03-.01l.02,.02c.27,.18,.53,.36,.79,.54h-.06c.39-.36,.78-.72,1.17-1.08v.06c-.17-.28-.33-.56-.49-.83v-.03s0-.02,0-.02c.19-.29,.33-.61,.43-.93v-.03s.04,0,.04,0c.32-.06,.63-.12,.95-.18l-.04,.04c.02-.54,.04-1.07,.06-1.59l.03,.05c-.32-.08-.63-.17-.93-.25h-.03s0-.03,0-.03c-.08-.34-.2-.67-.36-.96v-.02s0-.02,0-.02c.19-.27,.37-.54,.54-.79v.05c-.38-.41-.74-.8-1.08-1.17h.05c-.29,.18-.57,.33-.83,.49h-.02s-.02,0-.02,0c-.31-.2-.62-.34-.93-.43h-.02s0-.02,0-.02c-.06-.34-.12-.65-.17-.95l.03,.02c-.62-.03-1.14-.05-1.59-.07l.02-.02c-.1,.37-.18,.67-.25,.93h0s0,.01,0,.01c-.34,.08-.58,.17-.74,.24-.08,.03-.13,.06-.18,.08-.04,.02-.06,.03-.06,.03,0,0,.02-.01,.05-.03,.04-.02,.09-.05,.17-.09,.16-.07,.4-.17,.74-.26h-.01c.07-.24,.14-.55,.24-.92v-.02s.02,0,.02,0c.45,.01,.97,.03,1.59,.05h.02s0,.02,0,.02c.06,.29,.11,.6,.18,.95l-.02-.02c.32,.1,.64,.23,.95,.43h-.04c.26-.15,.54-.31,.83-.49l.03-.02,.02,.02c.34,.37,.7,.76,1.09,1.17l.02,.02-.02,.03c-.18,.26-.36,.52-.54,.79v-.04c.16,.3,.29,.63,.37,.98l-.03-.03c.3,.08,.61,.16,.93,.25h.03s0,.05,0,.05c-.02,.52-.04,1.05-.06,1.59v.04s-.04,0-.04,0c-.31,.06-.63,.12-.95,.18l.04-.03c-.1,.33-.25,.65-.44,.96v-.05c.16,.27,.32,.55,.48,.83l.02,.03-.03,.03c-.38,.36-.77,.72-1.17,1.08l-.03,.03-.03-.02c-.26-.18-.53-.36-.79-.54h.05s0,0,0,0c-.32,.17-.66,.29-.98,.36l.04-.04c-.08,.32-.17,.64-.25,.93v.04s-.05,0-.05,0c-.55-.02-1.09-.04-1.59-.06h-.04s0-.04,0-.04c-.06-.33-.12-.65-.18-.95l.03,.04c-.35-.11-.68-.26-.95-.44h.05c-.29,.17-.57,.33-.83,.48l-.03,.02-.02-.03c-.38-.41-.74-.8-1.08-1.17l-.02-.03,.02-.03c.19-.28,.38-.55,.54-.79v.04c-.17-.32-.29-.67-.37-.98l.03,.03c-.32-.09-.64-.17-.93-.25h-.03s0-.04,0-.04c.02-.56,.04-1.09,.06-1.59v-.03s.03,0,.03,0c.33-.06,.65-.12,.95-.17l-.02,.02c.11-.35,.26-.67,.44-.95v.03c-.17-.3-.33-.58-.48-.83v-.02s0-.01,0-.01c.48-.44,.87-.8,1.17-1.08h0s.01,0,.01,0c.25,.18,.45,.31,.58,.41,.06,.05,.11,.08,.15,.11,.03,.02,.05,.04,.05,.04Z"></path></g></g></g></g></g></g></g></svg> 