<?xml version="1.0" encoding="UTF-8"?><svg id="Layer_2" xmlns="http://www.w3.org/2000/svg" xmlns:xlink="http://www.w3.org/1999/xlink" viewBox="0 0 225.92 110.05"><defs><style>.cls-1{fill:#11aee5;}.cls-2{fill:#f9f5e3;}.cls-3,.cls-4{fill:#fff;}.cls-5{fill:#e1e0b9;}.cls-6{fill:#1490cf;}.cls-7{fill:#b4c035;}.cls-8{opacity:.5;}.cls-4{opacity:.38;}.cls-4,.cls-9,.cls-10,.cls-11,.cls-12,.cls-13,.cls-14,.cls-15{isolation:isolate;}.cls-16{fill:#46c7f0;}.cls-17{opacity:.3;}.cls-18{fill:rgba(1,1,1,.19);}.cls-9{opacity:.48;}.cls-9,.cls-12,.cls-19{fill:#2275bb;}.cls-20{fill:#ebead7;}.cls-21{opacity:.19;}.cls-22{fill:#30afe5;}.cls-10{fill:#6e6f72;}.cls-10,.cls-13{opacity:.6;}.cls-11{fill:#ccc8c1;opacity:.31;}.cls-12{opacity:.44;}.cls-23{fill:#d7205f;}.cls-13{fill:#5a5a5c;}.cls-24{mask:url(#mask-1);}.cls-25{mask:url(#mask);}.cls-26{fill:none;stroke:#2275bb;stroke-miterlimit:10;stroke-width:1.48px;}.cls-27{fill:#5c4b43;}.cls-28{fill:#a6a7aa;}.cls-29{fill:#362e45;}.cls-30,.cls-15{fill:#a8a8ab;}.cls-31{fill:#149dd8;}.cls-32{fill:#ecebd7;}.cls-14{opacity:.25;}.cls-15{opacity:.51;}</style><mask id="mask" x="48.04" y="94.55" width="22.83" height="15.5" maskUnits="userSpaceOnUse"><g id="mask0_5_207"><path class="cls-3" d="M58.36,103.12c1.19-.4,4.03-1.58,6.72-1.98,1.9-.32,4.82-.32,5.61-.71,.79-.39-1.19-3.56-3.64-4.74-3.87-1.9-10.2-1.9-12.1,3.8-.24,1.82,3.4,3.64,3.4,3.64Z"/></g></mask><mask id="mask-1" x="51.18" y="96.54" width="15.79" height="13.04" maskUnits="userSpaceOnUse"><g id="mask1_5_207"><path class="cls-3" d="M58.12,102.49c.79,.47,2.93,1.5,4.82,2.22,1.34,.47,3.4,1.19,3.95,1.58,.47,.4-1.42,2.45-3.4,3.01-3.16,.87-7.91-.08-8.46-4.59,.16-1.35,3.08-2.22,3.08-2.22Z"/></g></mask></defs><g id="Layer_1-2"><g><path class="cls-3" d="M105.25,26.73h8.22l14.47,39.62h-9.41l-3.08-8.86h-12.34l-3,8.86h-9.41l14.55-39.62Zm8.78,24.44l-4.67-14-4.74,14h9.41Z"/><path class="cls-3" d="M131.03,25.62h8.94v30.29c0,2.21,.95,3.32,2.85,3.32,.47,0,.95-.08,1.5-.16,.55-.16,1.03-.32,1.5-.55l1.19,6.72c-1.11,.55-2.37,.95-3.88,1.27-1.42,.32-2.85,.47-4.11,.47-2.53,0-4.51-.63-5.93-1.98-1.34-1.34-2.06-3.24-2.06-5.77V25.62Z"/><path class="cls-3" d="M149.85,33.69v-8.07h8.93v8.07h-8.93Zm0,32.66v-29.26h8.93v29.26h-8.93Z"/><path class="cls-3" d="M163.13,51.72c0-1.98,.32-3.95,1.03-5.77,.71-1.82,1.74-3.48,3.08-4.82,1.35-1.42,3.01-2.53,4.9-3.32,1.98-.79,4.19-1.27,6.64-1.27,3.4,0,6.25,.71,8.54,2.14,2.29,1.42,4.03,3.32,5.22,5.61l-8.7,2.61c-1.19-1.9-2.85-2.77-5.06-2.77-1.9,0-3.4,.71-4.66,2.06-1.27,1.34-1.9,3.24-1.9,5.54,0,1.19,.16,2.21,.48,3.16,.32,.95,.79,1.74,1.42,2.45,.63,.63,1.26,1.19,2.06,1.58,.79,.4,1.66,.55,2.53,.55,1.11,0,2.13-.24,3.08-.79,.95-.55,1.58-1.27,2.06-2.06l8.7,2.69c-1.11,2.29-2.77,4.11-5.14,5.61-2.37,1.42-5.22,2.21-8.62,2.21-2.45,0-4.66-.4-6.64-1.27-1.98-.87-3.64-1.98-4.98-3.32-1.34-1.42-2.37-3.01-3.08-4.82-.55-2.14-.95-4.03-.95-6.01Z"/><path class="cls-3" d="M210.42,66.9c-2.45,0-4.67-.4-6.64-1.19-1.98-.79-3.64-1.9-4.98-3.24-1.35-1.34-2.37-2.93-3.08-4.74-.71-1.82-1.03-3.72-1.03-5.69,0-2.14,.32-4.11,1.03-6.01,.71-1.9,1.74-3.56,3.08-4.9,1.34-1.42,3-2.53,4.9-3.32,1.98-.79,4.19-1.27,6.64-1.27s4.66,.4,6.64,1.27c1.9,.79,3.56,1.9,4.9,3.32,1.34,1.42,2.37,3.01,3.01,4.82,.71,1.82,1.03,3.72,1.03,5.77,0,.55,0,1.03-.08,1.5,0,.47-.08,.95-.16,1.34h-21.67c.16,1.98,.87,3.48,2.13,4.51,1.27,1.03,2.77,1.5,4.35,1.5,1.26,0,2.53-.32,3.8-.95,1.19-.63,2.06-1.5,2.45-2.53l7.59,2.14c-1.19,2.29-2.93,4.19-5.38,5.61-2.29,1.34-5.22,2.06-8.54,2.06Zm6.17-17.95c-.16-1.9-.87-3.32-1.98-4.43-1.19-1.11-2.61-1.58-4.27-1.58s-3.16,.55-4.35,1.66c-1.11,1.11-1.82,2.53-1.98,4.35h12.57Z"/><path class="cls-16" d="M221.41,84.38H93.86c-2.06,0-3.72-1.66-3.72-3.72s1.66-3.72,3.72-3.72h127.55c2.06,0,3.72,1.66,3.72,3.72s-1.66,3.72-3.72,3.72Z"/><path class="cls-1" d="M221.41,84.38h-86.27c-2.06,0-3.72-1.66-3.72-3.72s1.66-3.72,3.72-3.72h86.27c2.06,0,3.72,1.66,3.72,3.72s-1.66,3.72-3.72,3.72Z"/><path class="cls-31" d="M221.41,84.38h-45.55c-2.06,0-3.72-1.66-3.72-3.72s1.66-3.72,3.72-3.72h45.55c2.06,0,3.72,1.66,3.72,3.72s-1.66,3.72-3.72,3.72Z"/><path class="cls-22" d="M26.01,93.71S2.61,84.85,.79,47.37C.47,40.73-4.59,16.92,15.65,4.9,23.56,.16,33.13-1.11,42.07,.95c6.01,1.42,12.89,4.27,17.4,9.96,8.14,10.36,7.12,29.73,6.72,39.7-.16,3.32-4.11,19.37-5.77,21.27-10.12,11.39-34.4,21.83-34.4,21.83Z"/><path class="cls-32" d="M66.66,97.11l-8.94,.87-5.54-18.74,6.56-15.1,4.98,6.64,2.93,26.33Z"/><g class="cls-17"><path d="M52.19,79.24l5.54,18.74,3.72-.4-6.48-24.83-2.77,6.48Z"/></g><path class="cls-3" d="M55.03,72.91c-.08,0,1.11,4.9,2.69,10.91,1.58,6.01,2.93,10.83,3,10.83s-1.11-4.9-2.69-10.91-2.93-10.91-3-10.83Z"/><path class="cls-3" d="M58.12,91.89c0,.08,0,.16,.08,.24,.08,0,.16,0,.24-.08,0-.08,0-.16-.08-.24-.08-.08-.16,0-.24,.08Z"/><path class="cls-3" d="M56.69,86.04c0,.08,0,.16,.08,.24,.08,0,.16,0,.24-.08,0-.08,0-.16-.08-.24-.16,0-.24,0-.24,.08Z"/><path class="cls-3" d="M55.19,80.19c0,.08,0,.16,.08,.24,.08,0,.16,0,.24-.08,0-.08,0-.16-.08-.24-.08,0-.16,0-.24,.08Z"/><path class="cls-14" d="M36.21,86.04c0,.24-.24,.47-.47,.47s-.47-.24-.47-.47,.24-.47,.47-.47c.32,0,.47,.16,.47,.47Z"/><path class="cls-19" d="M26.88,97.9l20.88,.24c2.77,0,5.06-2.21,5.06-4.98s-2.21-5.06-4.98-5.06l-20.88-.24c-2.77,0-5.06,2.21-5.06,4.98-.08,2.77,2.21,5.06,4.98,5.06Z"/><path class="cls-13" d="M27.36,88.49s1.34,1.42,1.19,5.06c-.16,3.64-1.5,3.95-1.5,3.95,0,0-3.16-.55-3.56-3.4-.55-2.85,1.58-5.38,3.87-5.61Z"/><path class="cls-13" d="M25.62,88.89s1.98,3.16,0,5.69h26.02s.95-2.29-.87-4.82l-25.15-.87Z"/><path class="cls-6" d="M71.01,66.35c0,7.43-6.01,13.52-13.52,13.52s-13.52-6.01-13.52-13.52,6.01-13.52,13.52-13.52,13.52,6.01,13.52,13.52Z"/><path class="cls-26" d="M67.21,74.73l-8.3-1.9-1.11,1.9-5.69-.95-.47-2.21-6.56-1.34"/><path class="cls-18" d="M49.74,55.83c6.72-.32,9.01,7.12,11.94,14.23,1.9,4.51-1.82,9.57-6.64,8.78-2.14-.32-4.35-1.19-6.48-3.16-6.25-5.46-9.57-18.66,1.19-19.85Z"/><path class="cls-3" d="M60.73,59.39c0,1.27,1.03,2.29,2.29,2.29s2.29-1.03,2.29-2.29-1.03-2.29-2.29-2.29c-1.27-.08-2.29,.95-2.29,2.29Z"/><path class="cls-6" d="M52.9,89.6c2.53-6.88,2.93-9.25,2.69-20.48,0-9.73-7.91-17.56-17.55-17.56h-1.9c-8.3,0-15.26,5.61-17.16,13.29-.47,2.06-.55,4.11-.16,6.17,1.66,9.17,3.64,.55,2.06,11.31-1.9,12.97,31.39,9.09,32.03,7.28Z"/><path class="cls-9" d="M31.31,74.26s-9.49,8.46,.55,16.84c0,0-11.47-1.5-10.83-7.59,.16-2.14,.71-5.3,.08-8.15-.08,0,1.82,3.95,10.2-1.11Z"/><path class="cls-9" d="M30.05,74.73s-4.98,4.74-8.38,2.21l-.71,5.54s6.88-2.37,9.09-7.75Z"/><path class="cls-2" d="M46.49,53.93s13.68,6.8,4.98,36.38c-5.77,1.34-12.41,1.82-19.06,.87,0,0,9.09-20.88-1.27-38.83-.08,0,9.17-2.69,15.34,1.58Z"/><path class="cls-32" d="M44.83,54.88s-.47,3.95-4.43,4.11c-3.95,.16-5.54-3.24-5.54-3.24,0,0,3.32-5.46,9.96-.87Z"/><path class="cls-32" d="M50.53,58.05s4.82,14.47-.71,22.62c-5.54,8.15-6.72-.4-8.94,2.37-2.21,2.77-7.2,8.46-7.2,8.46,5.85,.55,11.78,.32,17.71-1.03,.08-.08,7.27-20.4-.87-32.42Z"/><path class="cls-32" d="M39.53,57.65l1.42-.16c1.9-.24,3.32-1.98,3.08-3.87l-1.42-12.34c-.24-1.9-1.98-3.32-3.87-3.08l-1.42,.16c-1.9,.24-3.32,1.98-3.08,3.87l1.42,12.34c.24,1.9,1.98,3.24,3.87,3.08Z"/><path class="cls-11" d="M43.25,46.42l.47,4.27-8.7-1.74-.32-2.61,8.54,.08Z"/><path class="cls-32" d="M7.51,97.19l8.94,1.66,8.3-21.91-3.64-4.9-8.62-2.53-4.98,27.68Z"/><g class="cls-17"><path d="M24.75,76.95l-8.3,21.91-3.72-.71,8.54-25.7,3.48,4.51Z"/></g><path class="cls-3" d="M21.19,72.52c-.08,0-1.82,4.98-3.87,11.15-2.06,6.17-3.64,11.23-3.56,11.31,.08,0,1.82-4.98,3.87-11.15,1.98-6.17,3.64-11.23,3.56-11.31Z"/><path class="cls-3" d="M16.6,92.37c0,.08,0,.16-.08,.24-.08,0-.16,0-.16-.08s0-.16,.08-.24c0,0,.08,0,.16,.08Z"/><path class="cls-3" d="M18.5,86.36c0,.08,0,.16-.08,.24-.08,0-.16,0-.16-.08s0-.16,.08-.24c0-.08,.08,0,.16,.08Z"/><path class="cls-3" d="M20.4,80.27c0,.08,0,.16-.08,.24-.08,0-.16,0-.16-.08s0-.16,.08-.24c.08,0,.16,0,.16,.08Z"/><path class="cls-6" d="M32.83,70.94c3.3-6.7,.55-14.81-6.15-18.11-6.7-3.3-14.8-.55-18.11,6.15-3.3,6.7-.55,14.8,6.15,18.11,6.7,3.3,14.8,.55,18.11-6.15Z"/><path class="cls-26" d="M26.96,76.23l-7.2-4.67-1.66,1.42-4.98-2.85,.32-2.29-5.69-3.48"/><path class="cls-18" d="M16.21,53.46s-6.17,9.25-.32,17.08c5.85,7.91,12.57,4.59,12.57,4.59,0,0-8.14,4.9-15.1,.16-7.04-4.67-7.59-18.9,2.85-21.83Z"/><path class="cls-3" d="M23.01,58.44c0,1.27,1.03,2.29,2.29,2.29s2.29-1.03,2.29-2.29-1.03-2.29-2.29-2.29-2.29,1.03-2.29,2.29Z"/><g class="cls-8"><path class="cls-5" d="M51.55,91.65c.32,1.19,.47,3.08-.32,4.19-.16,.24-.47,.08-.47-.16,0-.63,.24-1.27,.24-1.9,0-.71,0-1.34-.16-1.98-.16-.47,.63-.55,.71-.16Z"/></g><path class="cls-19" d="M31.07,52.35c1.58,2.93,2.77,6.09,3.72,9.33,.95,3.24,1.42,6.56,1.5,9.96,0,3.32-.32,6.72-.95,9.96-.63,3.24-1.58,6.48-2.93,9.57,.55-1.58,1.03-3.16,1.42-4.82,.4-1.58,.79-3.24,1.03-4.9,.55-3.24,.87-6.56,.79-9.89,0-3.32-.55-6.56-1.34-9.81-.4-1.58-.87-3.24-1.42-4.74-.47-1.58-1.11-3.16-1.82-4.67Z"/><path class="cls-14" d="M37.08,81.37c0,.24-.24,.47-.47,.47s-.47-.24-.47-.47,.24-.47,.47-.47,.47,.16,.47,.47Z"/><path class="cls-14" d="M37.95,75.29c0,.24-.24,.47-.47,.47s-.47-.24-.47-.47,.24-.47,.47-.47,.47,.24,.47,.47Z"/><path class="cls-14" d="M38.03,69.27c0,.24-.24,.47-.47,.47s-.47-.24-.47-.47,.24-.47,.47-.47c.32,0,.47,.24,.47,.47Z"/><path class="cls-14" d="M37.08,62.79c0,.24-.24,.47-.47,.47s-.47-.24-.47-.47,.24-.47,.47-.47,.47,.24,.47,.47Z"/><path class="cls-14" d="M35.11,57.25c0,.24-.24,.47-.47,.47s-.47-.24-.47-.47,.24-.47,.47-.47,.47,.16,.47,.47Z"/><path class="cls-14" d="M35.9,87.23c0,.24-.24,.47-.47,.47s-.47-.24-.47-.47,.24-.47,.47-.47,.47,.24,.47,.47Z"/><path class="cls-14" d="M52.82,81.85c0,.24-.16,.47-.47,.47-.24,0-.47-.16-.47-.47,0-.24,.16-.47,.47-.47,.24,0,.47,.24,.47,.47Z"/><path class="cls-14" d="M53.37,75.76c0,.24-.16,.47-.47,.47-.24,0-.47-.16-.47-.47,0-.24,.16-.47,.47-.47,.24,.08,.47,.24,.47,.47Z"/><path class="cls-14" d="M53.06,69.75c0,.24-.16,.47-.47,.47-.24,0-.47-.16-.47-.47,0-.24,.16-.47,.47-.47,.24,0,.47,.24,.47,.47Z"/><path class="cls-14" d="M51.63,63.34c0,.24-.16,.47-.47,.47-.24,0-.47-.16-.47-.47,0-.24,.16-.47,.47-.47,.24,0,.47,.24,.47,.47Z"/><path class="cls-14" d="M49.34,57.97c0,.24-.16,.47-.47,.47-.24,0-.47-.16-.47-.47,0-.24,.16-.47,.47-.47,.24,0,.47,.16,.47,.47Z"/><path class="cls-14" d="M51.71,87.46c0,.24-.16,.47-.47,.47-.24,0-.47-.16-.47-.47,0-.24,.16-.47,.47-.47,.24,0,.4,.16,.47,.47Z"/><path class="cls-27" d="M18.42,95.29c1.42,3.4-.16,7.35-3.56,8.78-3.4,1.42-7.35-.16-8.78-3.56-1.42-3.4,.16-7.35,3.56-8.78,3.4-1.5,7.35,.16,8.78,3.56Z"/><path class="cls-10" d="M14.78,92.76s-1.5,1.34-1.66,5.06c-.16,3.72,1.19,4.19,1.19,4.19,0,0,3.24-.24,3.95-3.16,.79-2.93-1.11-5.69-3.48-6.09Z"/><g class="cls-8"><path class="cls-5" d="M7.51,94.82c-.55,1.03-1.11,2.69-.71,3.95,.08,.24,.4,.16,.47,0,.16-.55,.08-1.19,.24-1.82,.16-.63,.32-1.27,.63-1.82,.24-.4-.4-.63-.63-.32Z"/></g><path class="cls-2" d="M17.24,97.59c0-.24,0-.4-.08-.63l.32-.32-.32-.95-.4,.08c-.08-.16-.16-.32-.32-.47v-.55l-.55-.47-.16,.47c-.16-.08-.24-.08-.4-.08l-.24-.47-.55,.32,.08,.55c-.08,.08-.16,.24-.24,.4l-.4-.16-.16,.87,.32,.4c0,.24,0,.4,.08,.63l-.32,.32,.32,.95,.4-.08c.08,.16,.16,.32,.32,.47v.55l.55,.47,.16-.47c.16,.08,.24,.08,.4,.08l.24,.47,.55-.32-.08-.55c.08-.08,.16-.24,.24-.4l.4,.16,.16-.87-.32-.4Zm-.87-.08c-.08,.47-.47,.71-.79,.4-.32-.24-.55-.87-.47-1.42,.08-.47,.47-.71,.79-.4,.4,.24,.55,.87,.47,1.42Z"/><path class="cls-2" d="M16.37,97.51v-.24c0-.16,0-.4-.16-.71-.08-.16-.16-.32-.24-.4-.08-.08-.24-.24-.32-.24h-.16c-.08,0-.16,.08-.16,.08-.08,.08-.24,.24-.24,.47-.08,.24,0,.47,0,.63,0,.08,.08,.24,.08,.32,.08,.08,.08,.16,.16,.24,.08,.16,.24,.24,.32,.32,.08,.08,.24,.08,.32,0,.16-.08,.32-.24,.32-.32,.08-.08,.08-.16,.08-.16,0,0,0,.08-.08,.24-.08,.08-.16,.24-.32,.32h-.32c-.08-.08-.24-.16-.32-.32-.08-.08-.08-.16-.16-.24,0-.08-.08-.16-.08-.32-.08-.24-.08-.4,0-.63,.08-.16,.16-.32,.24-.4q.08-.08,.16-.08h.16c.16,0,.24,.08,.32,.24,.08,.08,.16,.24,.24,.4,.08,.24,.16,.55,.16,.71v.08Z"/><path class="cls-2" d="M17.24,97.59c0,.08,.08,.08,.08,.08,.08,.08,.16,.16,.24,.32-.08,.24-.08,.47-.16,.87-.08-.08-.24-.08-.4-.16-.08,.16-.16,.32-.24,.4,0,.16,.08,.4,.08,.55-.16,.08-.32,.16-.55,.24l-.24-.47c-.16,0-.24,0-.4-.08-.08,.16-.16,.32-.16,.47-.16-.16-.4-.32-.55-.47v-.55c-.08-.16-.24-.32-.32-.47h-.4c-.08-.32-.16-.63-.32-.95,.08-.08,.16-.16,.32-.32,0-.24-.08-.4,0-.63-.08-.16-.24-.24-.32-.4,.08-.32,.16-.55,.16-.87,.16,.08,.24,.08,.4,.16,.08-.16,.16-.32,.24-.4,0-.16-.08-.4-.08-.55,.16-.08,.4-.16,.55-.32l.24,.47c.16,0,.24,0,.4,.08,.08-.16,.16-.32,.16-.47,.24,.16,.4,.32,.63,.47v.55c.16,.16,.24,.32,.32,.47,.16,0,.24,0,.4-.08,.08,.4,.24,.63,.32,.95-.08,.08-.24,.24-.32,.32,0,.24,0,.4,.08,.47q-.16,.24-.16,.32v-.63c.08-.08,.16-.16,.32-.32-.08-.24-.16-.55-.32-.95h-.4c-.08-.16-.16-.32-.32-.47v-.55c-.16-.16-.4-.32-.55-.47-.08,.16-.16,.32-.16,.47-.16-.08-.24-.08-.4-.08l-.24-.47c-.16,.08-.4,.16-.55,.32,0,.16,.08,.4,.08,.55-.08,.08-.16,.24-.24,.4-.16-.08-.24-.08-.4-.16-.08,.32-.16,.55-.16,.87,.08,.16,.24,.24,.32,.4,0,.24,0,.4,.08,.63-.08,.08-.16,.16-.32,.32,.08,.32,.24,.63,.32,.95,.16,0,.24,0,.4-.08,.08,.16,.24,.4,.32,.47v.55c.24,.16,.4,.32,.55,.47,.08-.16,.16-.32,.16-.47,.16,.08,.32,.08,.4,.08,.08,.16,.16,.32,.24,.47,.16-.08,.4-.16,.55-.32,0-.24-.08-.4-.08-.55,.08-.08,.16-.24,.24-.4,.16,.08,.24,.08,.4,.16,.08-.32,.16-.63,.16-.87-.08-.16-.16-.24-.24-.32-.08,.08-.16,0-.16,0Z"/><path class="cls-7" d="M36.61,33.93h.24c2.69-.16,3.4-3.72,2.14-5.61-.47-.63-1.11-1.03-1.9-1.19h-.16c.95,.63,1.74,1.9,1.66,3.4-.16,1.58-.79,2.77-1.98,3.4Z"/><path class="cls-7" d="M46.26,37.01h.24c2.69,0,3.4-5.38,2.14-7.28-.47-.63-1.11-1.9-1.9-1.98l-.08-.4s0-.24-.08-.24c.95,.63,1.74,3.48,1.58,4.98-.16,1.58-.79,1.34-1.9,4.9Z"/><path class="cls-23" d="M40.64,41.99h.08c1.19-.08,1.5-1.58,.95-2.45-.16-.32-.47-.47-.79-.47,.4,.24,.71,.79,.71,1.5-.16,.63-.4,1.19-.95,1.42Z"/><path class="cls-32" d="M56.54,32.48c2.32-10.18-4.04-20.31-14.22-22.63-10.18-2.32-20.31,4.04-22.63,14.22-2.32,10.18,4.04,20.31,14.22,22.63s20.31-4.04,22.63-14.22Z"/><path class="cls-29" d="M37.08,33.93h-.16c1.03-.55,1.66-1.82,1.74-3.4,.08-1.58-.63-2.85-1.42-3.4h-.24c-.55,0-1.19,.16-1.66,.63-1.9,1.66-1.03,6.33,1.74,6.17Z"/><path class="cls-22" d="M36.93,33.93h.16c2.37-.16,3.08-3.72,1.9-5.61-.4-.63-1.03-1.03-1.66-1.19h-.16c.87,.63,1.58,1.9,1.42,3.4-.08,1.58-.63,2.77-1.66,3.4Z"/><path class="cls-12" d="M6.01,49.51S-1.19,9.25,37.48,1.66C38.11,2.85-7.36-.47,6.01,49.51Z"/><path class="cls-3" d="M35.19,29.18c0,.63,.32,1.19,.71,1.19s.71-.55,.71-1.19-.32-1.19-.71-1.19-.71,.55-.71,1.19Z"/><path class="cls-29" d="M47.28,33.93h-.16c1.03-.55,1.66-1.82,1.74-3.4,.08-1.58-.63-2.85-1.42-3.4h-.24c-.55,0-1.19,.16-1.66,.63-1.98,1.66-1.03,6.33,1.74,6.17Z"/><path class="cls-22" d="M47.05,33.93h.16c2.37-.16,3.08-3.72,1.9-5.61-.4-.63-1.03-1.03-1.66-1.19h-.16c.87,.63,1.58,1.9,1.42,3.4,0,1.58-.55,2.77-1.66,3.4Z"/><path class="cls-3" d="M45.39,29.18c0,.63,.32,1.19,.71,1.19s.71-.55,.71-1.19-.32-1.19-.71-1.19-.71,.55-.71,1.19Z"/><path class="cls-14" d="M27.12,29.42c-.08-.08-.08-.32,0-.4,.08-.08,.32-.08,.4,0,.08,.08,.08,.32,0,.4-.08,.08-.24,.08-.4,0Z"/><path class="cls-14" d="M26.8,31.63c-.08-.08-.08-.32,0-.4,.08-.08,.32-.08,.4,0,.08,.08,.08,.32,0,.4-.08,.16-.24,.16-.4,0Z"/><path class="cls-14" d="M26.72,34.16c-.08-.08-.08-.32,0-.4,.08-.08,.32-.08,.4,0,.08,.08,.08,.32,0,.4-.16,.16-.32,.16-.4,0Z"/><path class="cls-14" d="M27.12,36.77c-.08-.08-.08-.32,0-.4,.08-.08,.32-.08,.4,0,.08,.08,.08,.32,0,.4-.08,.08-.32,.08-.4,0Z"/><path class="cls-14" d="M27.83,39.54c-.08-.08-.08-.32,0-.4,.08-.08,.32-.08,.4,0,.08,.08,.08,.32,0,.4-.16,.08-.32,.08-.4,0Z"/><path class="cls-14" d="M29.1,41.76c-.08-.08-.08-.32,0-.4,.08-.08,.32-.08,.4,0,.08,.08,.08,.32,0,.4-.16,.08-.32,.08-.4,0Z"/><path class="cls-14" d="M30.6,43.81c-.08-.08-.08-.32,0-.4,.08-.08,.32-.08,.4,0,.08,.08,.08,.32,0,.4-.08,.16-.24,.16-.4,0Z"/><path class="cls-30" d="M32.73,46.18c-2.53-1.58-4.43-4.11-5.54-6.88-.55-1.42-.87-2.93-1.03-4.35-.08-.79-.08-1.5-.08-2.29,.08-.71,.08-1.5,.16-2.21,.4-3,1.19-5.93,2.53-8.62s3.16-5.14,5.46-7.04c-1.11,.95-2.14,2.14-3,3.32-.87,1.19-1.66,2.45-2.29,3.8-1.27,2.69-2.06,5.54-2.45,8.54-.16,.71-.08,1.5-.16,2.21,0,.71,0,1.5,.08,2.21,.16,1.5,.47,2.93,.95,4.35,.55,1.34,1.27,2.69,2.14,3.87,.95,1.19,1.98,2.29,3.24,3.08Z"/><path class="cls-15" d="M51.79,13.21s-27.99,23.01-31.47,18.58c-3.4-4.43-3.56-13.21-3.56-13.21L36.06,4.35l15.74,8.86Z"/><path class="cls-22" d="M52.27,13.29s-31.24,20.56-34.79,15.74c-3.56-4.74-3.4-13.52-3.4-13.52L35.42,3.01l16.84,10.28Z"/><path class="cls-29" d="M46.65,39.86c-1.66,1.19-7.59,1.19-11.23,.24,0,0,1.11,4.19-.71,6.56,0,0,4.74,1.19,10.83-1.5-.08,0,1.82-2.53,1.11-5.3Z"/><path class="cls-20" d="M47.21,41.28c-1.98,1.27-7.28,1.82-10.44,.08,0,0,.32,2.77-2.06,5.3,0,0,4.67,1.5,10.99-.24,0,0,1.82-2.29,1.5-5.14Z"/><path class="cls-4" d="M43.09,46.97s.47-1.34-1.27-1.82c-1.74-.47-2.85-1.74-2.93-3.01,0,0-1.19-.24-1.34-.4-.24-.16-.71-.32-.71-.32,0,0-.24,2.93-.79,3.72-.55,.79-1.11,1.5-1.11,1.5,0,0,3.87,1.11,8.14,.32Z"/><path class="cls-14" d="M46.57,43.26c0,.08-.08,.16-.16,.16s-.16-.08-.16-.16,.08-.16,.16-.16,.16,.08,.16,.16Z"/><path class="cls-14" d="M46.34,44.36c0,.08-.08,.16-.16,.16s-.16-.08-.16-.16,.08-.16,.16-.16,.16,.08,.16,.16Z"/><path class="cls-14" d="M45.86,45.39c0,.08-.08,.16-.16,.16s-.16-.08-.16-.16,.08-.16,.16-.16q.16,.08,.16,.16Z"/><path class="cls-14" d="M37.32,43.34c0,.08-.08,.16-.16,.16s-.16-.08-.16-.16,.08-.16,.16-.16,.16,.08,.16,.16Z"/><path class="cls-14" d="M37.08,44.52c0,.08-.08,.16-.16,.16s-.16-.08-.16-.16,.08-.16,.16-.16,.16,.08,.16,.16Z"/><path class="cls-14" d="M36.61,45.55c0,.08-.08,.16-.16,.16s-.16-.08-.16-.16,.08-.16,.16-.16,.16,.08,.16,.16Z"/><path class="cls-3" d="M36.77,41.36c.08,.95-.08,1.98-.32,2.93-.16,.47-.4,.95-.71,1.34-.32,.4-.63,.79-1.03,1.03,.32-.4,.55-.79,.87-1.19,.24-.4,.47-.87,.63-1.27,.24-.95,.32-1.9,.55-2.85Z"/><path class="cls-28" d="M47.13,41.44c.08,.47,.08,.87,0,1.34,0,.47-.08,.87-.24,1.34-.24,.87-.63,1.74-1.34,2.37,.47-.79,.79-1.58,1.03-2.45,.32-.79,.4-1.66,.55-2.61Z"/><path class="cls-14" d="M37.72,95.85c.24,.16,.32,.47,.16,.71-.16,.24-.47,.32-.71,.16-.24-.16-.32-.47-.16-.71,.16-.32,.47-.32,.71-.16Z"/><path class="cls-14" d="M42.14,100.59c.24,.16,.32,.47,.16,.71-.16,.24-.47,.32-.71,.16-.24-.16-.32-.47-.16-.71,.16-.24,.47-.32,.71-.16Z"/><path class="cls-32" d="M21.51,91.26l29.34,7.51-.08,5.54-34.71,1.82,1.82-12.49,3.64-2.37Z"/><g class="cls-17"><path d="M46.89,104.47l-2.77-4.74-26.41-6.09,3.8-2.37,29.34,7.51-.08,5.54-3.87,.16Z"/></g><path class="cls-3" d="M46.89,104.47l-.16-.32c-.16-.24-.32-.55-.55-.95-.47-.87-1.19-2.06-1.98-3.56v-.08h-.08c-2.77-.63-6.48-1.5-10.44-2.45-4.35-1.03-8.38-1.9-11.23-2.53-1.42-.32-2.53-.55-3.4-.71-.4-.08-.71-.16-.95-.16s-.32-.08-.32,0c0,0,.08,.08,.32,.08,.24,.08,.55,.16,.95,.24,.87,.24,1.98,.47,3.4,.87,2.85,.71,6.8,1.66,11.23,2.61,4.03,.87,7.67,1.74,10.44,2.37l-.08-.08c.87,1.42,1.58,2.61,2.14,3.48,.24,.4,.4,.71,.63,.95,0,.16,.08,.24,.08,.24Z"/><path class="cls-3" d="M35.5,96.48c.08,.08,.08,.16,0,.24-.08,.08-.16,.08-.24,0-.08-.08-.08-.16,0-.24,.08-.08,.16-.08,.24,0Z"/><path class="cls-3" d="M42.22,98.22c.08-.08,.08-.16,0-.24-.08-.08-.16-.08-.24,0-.08,.08-.08,.16,0,.24,0,.08,.16,.08,.24,0Z"/><path class="cls-3" d="M29.41,94.98c.08,.08,.08,.16,0,.24-.08,.08-.16,.08-.24,0-.08-.08-.08-.16,0-.24,.08-.08,.24-.08,.24,0Z"/><g class="cls-21"><path d="M58.36,103.12c1.19-.4,4.03-1.58,6.72-1.98,1.9-.32,4.82-.32,5.61-.71,.79-.39-1.19-3.56-3.64-4.74-3.87-1.9-10.2-1.9-12.1,3.8-.24,1.82,3.4,3.64,3.4,3.64Z"/></g><path class="cls-27" d="M58.36,103.12c1.19-.4,4.03-1.58,6.72-1.98,1.9-.32,4.82-.32,5.61-.71,.79-.39-1.19-3.56-3.64-4.74-3.87-1.9-10.2-1.9-12.1,3.8-.24,1.82,3.4,3.64,3.4,3.64Z"/><g class="cls-25"><g class="cls-21"><path d="M49.18,107.79c.47,1.03,1.5,1.74,2.53,2.06,1.11,.32,2.21,.24,3.32,0,2.13-.48,4.11-1.66,5.38-3.4,1.27-1.74,1.74-4.11,1.03-6.17-.71-2.06-2.61-3.64-4.82-3.8-1.5-.08-2.93,.47-4.19,1.19-1.42,.87-2.69,1.98-3.48,3.48-1.11,1.98-1.19,4.51-.32,6.56"/></g></g><path class="cls-27" d="M58.12,102.49c.79,.47,2.93,1.5,4.82,2.22,1.34,.47,3.4,1.19,3.95,1.58,.47,.4-1.42,2.45-3.4,3.01-3.16,.87-7.91-.08-8.46-4.59,.16-1.35,3.08-2.22,3.08-2.22Z"/><g class="cls-24"><g class="cls-21"><path d="M52.5,106.05c.47,.71,1.34,1.11,2.21,1.19,.87,.08,1.74-.16,2.45-.47,1.5-.63,2.85-1.82,3.56-3.24,.71-1.5,.71-3.32-.08-4.74-.79-1.42-2.45-2.37-4.11-2.21-1.11,.16-2.14,.71-2.93,1.5-.95,.79-1.74,1.9-2.14,3.01-.55,1.66-.32,3.48,.63,4.9"/></g></g><path class="cls-32" d="M48.95,102.81c.08,5.77,8.62,5.85,9.41,.32,1.03-6.56-9.49-7.28-9.41-.32Z"/><path class="cls-32" d="M64.84,95.61c-1.58,0-3.64-.24-5.06,.63-.4,.24,0,.87,.4,.79,.79-.16,1.58-.24,2.45-.24,.79,0,1.66,.08,2.45-.08,.71-.24,.4-1.11-.24-1.11Z"/><g class="cls-21"><path d="M55.11,99.8c-.24-.16-.47-.24-.79-.32l-.16-.71-1.27,.08-.16,.71c-.24,.08-.47,.16-.71,.32l-.63-.4-.87,.95,.4,.63c-.16,.24-.24,.47-.32,.79l-.71,.16,.08,1.26,.71,.16c.08,.24,.16,.48,.32,.71l-.4,.63,.95,.87,.63-.4c.24,.16,.47,.24,.79,.32l.16,.71,1.27-.08,.16-.71c.24-.08,.47-.16,.71-.32l.63,.4,.87-.95-.4-.63c.16-.24,.24-.47,.32-.79l.71-.16-.08-1.26-.71-.16c-.08-.24-.16-.47-.32-.71l.4-.63-.95-.87-.63,.4Zm-.55,1.74c.55,.47,.55,1.35,.08,1.9-.47,.55-1.34,.55-1.9,.08-.55-.47-.55-1.34-.08-1.9,.47-.55,1.34-.63,1.9-.08Z"/></g><path class="cls-2" d="M54.64,101.46l-.24-.24c-.16-.08-.47-.24-.87-.16-.16,0-.4,.08-.55,.24-.16,.16-.32,.32-.47,.55-.08,.16-.08,.24-.08,.39v.4c.08,.32,.24,.55,.4,.79,.24,.24,.47,.32,.79,.4h.4c.16,0,.24-.08,.4-.16,.24-.08,.4-.32,.55-.48,.16-.16,.16-.39,.24-.63,0-.4-.08-.71-.24-.87-.16-.16-.32-.24-.32-.24,0,0,.08,.08,.24,.24,.08,.16,.24,.47,.16,.87,0,.16-.08,.4-.24,.55-.16,.16-.32,.39-.55,.47-.08,.08-.24,.08-.4,.16h-.4c-.24,0-.55-.16-.71-.32-.24-.16-.32-.47-.4-.71v-.4c0-.16,.08-.24,.08-.4,.08-.24,.24-.4,.4-.55,.16-.16,.4-.24,.55-.24,.4-.08,.71,0,.87,.16,.32,.08,.4,.16,.4,.16Z"/><path class="cls-2" d="M55.11,99.8q.08-.08,.16-.08c.08-.08,.24-.16,.47-.32,.24,.24,.55,.47,.95,.87-.08,.24-.24,.4-.4,.63,.16,.24,.24,.47,.32,.71,.24,.08,.47,.08,.71,.16,0,.39,0,.79,.08,1.26-.24,.08-.47,.16-.71,.16-.08,.24-.16,.48-.32,.79,.16,.16,.32,.4,.4,.63v-.08c-.24,.32-.55,.63-.87,.95h.08c-.24-.16-.4-.24-.63-.39-.24,.16-.47,.24-.71,.32-.08,.24-.08,.47-.16,.71-.4,0-.79,0-1.27,.08-.08-.24-.16-.47-.16-.71-.24-.08-.47-.16-.79-.32-.24,.16-.4,.32-.63,.4h.08c-.32-.32-.63-.55-.95-.87v.08c.16-.24,.24-.47,.4-.63-.16-.24-.24-.47-.32-.71-.24-.08-.47-.08-.71-.16,0-.39,0-.87-.08-1.26,.24-.08,.47-.16,.71-.16,.08-.24,.16-.55,.32-.79-.16-.24-.32-.4-.4-.63v.08c.32-.32,.55-.63,.87-.95,.24,.16,.47,.24,.63,.4,.24-.16,.47-.24,.71-.32,.08-.24,.08-.55,.16-.71,.47,0,.87,0,1.27-.08,.08,.32,.16,.55,.24,.71,.24,.08,.47,.16,.55,.16q-.08,0,0,.08-.08-.08-.16-.08c-.16-.08-.32-.16-.55-.24-.08-.24-.08-.47-.16-.71-.32,0-.79,0-1.27,.08-.08,.24-.08,.47-.16,.71-.24,.08-.47,.16-.79,.32-.24-.16-.4-.24-.63-.4-.24,.32-.55,.63-.87,.95,.16,.24,.32,.4,.4,.63-.16,.24-.24,.47-.32,.79-.24,.08-.47,.16-.71,.16,0,.39,0,.79,.08,1.26,.24,.08,.47,.08,.71,.16,.08,.24,.16,.55,.32,.79-.16,.24-.24,.48-.4,.63,.32,.32,.63,.55,.95,.87,.24-.16,.4-.32,.63-.4h-.08c.24,.16,.55,.24,.79,.32,.08,.24,.16,.47,.16,.71,.4,0,.87,0,1.27-.08,.08-.24,.08-.47,.16-.71,.24-.08,.55-.24,.79-.32,.24,.16,.47,.24,.63,.4,.32-.32,.55-.63,.87-.95-.16-.24-.32-.4-.4-.63,.16-.24,.24-.55,.32-.79,.24-.08,.47-.16,.71-.16,0-.47,0-.87-.08-1.26-.24-.08-.55-.08-.71-.16-.08-.32-.24-.55-.32-.71,.16-.24,.24-.47,.4-.63-.4-.32-.71-.63-.95-.87-.24,.16-.32,.24-.47,.32,0-.08-.08-.08-.16,0Z"/></g></g></svg>