<?xml version="1.0" encoding="utf-8"?>
<!-- Generator: Adobe Illustrator 25.2.0, SVG Export Plug-In . SVG Version: 6.00 Build 0)  -->
<svg version="1.1" id="Layer_1" xmlns="http://www.w3.org/2000/svg" xmlns:xlink="http://www.w3.org/1999/xlink" x="0px" y="0px"
	 viewBox="0 0 120 120" style="enable-background:new 0 0 120 120;" xml:space="preserve">
<style type="text/css">
	.st0{clip-path:url(#SVGID_2_);fill:#E1F9FF;}
	.st1{clip-path:url(#SVGID_2_);}
	.st2{fill:#2EB1E6;}
	.st3{fill:#EDEBD8;}
	.st4{opacity:0.3;}
	.st5{fill:#FFFFFF;}
	.st6{opacity:0.25;}
	.st7{fill:#1E75BB;}
	.st8{opacity:0.6;fill:#59595C;}
	.st9{fill:#0090D0;}
	.st10{fill:none;stroke:#1E75BB;stroke-width:1.3039;stroke-miterlimit:10;}
	.st11{opacity:0.44;fill:#1E75BB;}
	.st12{opacity:0.48;fill:#1E75BB;}
	.st13{fill:#F8F6E3;}
	.st14{opacity:0.31;fill:#CCCAC3;}
	.st15{opacity:0.1;}
	.st16{fill:#B3B3B3;}
	.st17{fill:#D6D6D6;}
	.st18{fill:#CCCCCC;}
	.st19{fill:#5A4A42;}
	.st20{opacity:0.6;fill:#6D6E71;}
	.st21{opacity:0.5;}
	.st22{fill:#E1E0B9;}
	.st23{fill:#B4C035;}
	.st24{fill:#D81D5D;}
	.st25{fill:#352D44;}
	.st26{fill:#A7A8AB;}
	.st27{opacity:0.51;fill:#A7A8AB;}
	.st28{fill:#EBEAD7;}
	.st29{opacity:0.38;fill:#FFFFFF;}
	.st30{fill:#A6A7AA;}
	.st31{opacity:0.19;}
	.st32{opacity:0.19;clip-path:url(#XMLID_2_);}
	.st33{opacity:0.19;clip-path:url(#XMLID_3_);}
</style>
<g>
	<defs>
		<circle id="SVGID_1_" cx="60" cy="60" r="60"/>
	</defs>
	<clipPath id="SVGID_2_">
		<use xlink:href="#SVGID_1_"  style="overflow:visible;"/>
	</clipPath>
	<circle class="st0" cx="60" cy="60" r="68.8"/>
	<g class="st1">
		<path id="XMLID_1583_" class="st2" d="M42.2,111.2c0,0-26.1-9.9-28.1-51.6c-0.4-7.4-6-33.9,16.5-47.4c8.8-5.3,19.4-6.7,29.5-4.4
			c6.7,1.6,14.3,4.7,19.4,11.1c9.1,11.6,7.9,33.1,7.5,44.2c-0.1,3.7-4.6,21.6-6.5,23.7C69.3,99.5,42.2,111.2,42.2,111.2z"/>
		<g id="XMLID_1568_">
			<g id="XMLID_1569_">
				<g id="XMLID_1581_">
					<polygon id="XMLID_1582_" class="st3" points="87.5,114.9 77.6,115.8 71.3,95 78.7,78.2 84.2,85.5 84.2,85.5 					"/>
				</g>
				<g id="XMLID_1579_" class="st4">
					<polygon id="XMLID_1580_" points="71.3,95 77.6,115.8 81.7,115.5 74.5,87.8 					"/>
				</g>
				<g id="XMLID_1576_">
					<g id="XMLID_1577_">
						<path id="XMLID_1578_" class="st5" d="M74.6,87.9c-0.1,0,1.2,5.5,3,12.1c1.7,6.7,3.2,12.1,3.3,12c0.1,0-1.2-5.5-3-12.1
							C76.1,93.3,74.7,87.9,74.6,87.9z"/>
					</g>
				</g>
				<g id="XMLID_1574_">
					<path id="XMLID_1575_" class="st5" d="M78,109.1c0,0.1,0,0.2,0.1,0.2c0.1,0,0.2,0,0.2-0.1c0-0.1,0-0.2-0.1-0.2
						C78.1,109,78,109,78,109.1z"/>
				</g>
				<g id="XMLID_1572_">
					<path id="XMLID_1573_" class="st5" d="M76.4,102.6c0,0.1,0,0.2,0.1,0.2c0.1,0,0.2,0,0.2-0.1c0-0.1,0-0.2-0.1-0.2
						C76.5,102.5,76.4,102.5,76.4,102.6z"/>
				</g>
				<g id="XMLID_1570_">
					<path id="XMLID_1571_" class="st5" d="M74.8,96.1c0,0.1,0,0.2,0.1,0.2c0.1,0,0.2,0,0.2-0.1c0-0.1,0-0.2-0.1-0.2
						C74.9,95.9,74.8,96,74.8,96.1z"/>
				</g>
			</g>
		</g>
		<path id="XMLID_1567_" class="st6" d="M53.6,102.5c0,0.3-0.2,0.5-0.5,0.5c-0.3,0-0.5-0.2-0.5-0.5c0-0.3,0.2-0.5,0.5-0.5
			C53.4,102,53.6,102.2,53.6,102.5z"/>
		<g id="XMLID_1562_">
			<g id="XMLID_1564_">
				<g id="XMLID_1565_">
					<path id="XMLID_1566_" class="st7" d="M43.2,115.8l23.2,0.3c3.1,0,5.6-2.5,5.7-5.6v0c0-3.1-2.5-5.6-5.6-5.7l-23.2-0.3
						c-3.1,0-5.6,2.5-5.7,5.6l0,0C37.6,113.3,40.1,115.8,43.2,115.8z"/>
				</g>
			</g>
			<path id="XMLID_1563_" class="st8" d="M43.7,105.3c0,0,1.5,1.6,1.3,5.6c-0.2,4-1.7,4.4-1.7,4.4s-3.5-0.6-4-3.8
				C38.8,108.4,41.1,105.6,43.7,105.3z"/>
		</g>
		<path id="XMLID_1561_" class="st8" d="M41.8,105.7c0,0,2.2,3.5,0,6.4h29c0,0,1.1-2.6-0.9-5.4L41.8,105.7z"/>
		<g id="XMLID_1556_">
			
				<ellipse id="XMLID_1560_" transform="matrix(0.4927 -0.8702 0.8702 0.4927 -30.9101 108.1723)" class="st9" cx="77.3" cy="80.6" rx="15.1" ry="15.1"/>
			<polyline id="XMLID_1559_" class="st10" points="88.2,90 78.9,87.9 77.6,90 71.3,88.9 70.8,86.5 63.5,84.9 			"/>
			<path id="XMLID_1558_" class="st11" d="M68.7,69c7.5-0.4,10,7.9,13.3,15.9c2.1,5-2,10.6-7.4,9.8c-2.3-0.4-4.8-1.4-7.2-3.5
				C60.4,84.9,56.7,70.2,68.7,69z"/>
			<path id="XMLID_1557_" class="st5" d="M80.9,72.8c0,1.4,1.2,2.6,2.6,2.6c1.4,0,2.6-1.2,2.6-2.6c0-1.4-1.2-2.6-2.6-2.6
				C82.1,70.2,80.9,71.4,80.9,72.8z"/>
		</g>
		<path id="XMLID_1555_" class="st9" d="M72.2,106.5c2.8-7.7,3.2-10.3,3-22.8c0-10.8-8.8-19.6-19.6-19.6h-2.1
			c-9.2,0-16.9,6.3-19,14.8c-0.6,2.3-0.6,4.6-0.2,6.9c1.8,10.2,4,0.6,2.3,12.6C34.4,112.9,71.4,108.6,72.2,106.5z"/>
		<path id="XMLID_1554_" class="st12" d="M48.1,89.5c0,0-10.6,9.4,0.6,18.8c0,0-12.7-1.6-12.1-8.5c0.2-2.4,0.8-5.9,0.1-9.1
			C36.7,90.7,38.8,95.1,48.1,89.5z"/>
		<path id="XMLID_1553_" class="st12" d="M46.7,89.9c0,0-5.6,5.3-9.4,2.5l-0.8,6.2C36.5,98.6,44.3,96,46.7,89.9z"/>
		<path id="XMLID_1552_" class="st13" d="M65,66.8c0,0,15.2,7.6,5.5,40.5c-6.4,1.5-13.9,2-21.2,1c0,0,10.2-23.3-1.4-43.3
			C47.9,65,58.2,62.1,65,66.8z"/>
		<path id="XMLID_1551_" class="st3" d="M63.2,67.8c0,0-0.5,4.4-4.9,4.6c-4.4,0.2-6.2-3.6-6.2-3.6S55.8,62.7,63.2,67.8z"/>
		<path id="XMLID_1550_" class="st3" d="M69.6,71.4c0,0,5.4,16.1-0.8,25.2c-6.1,9.1-7.5-0.5-10,2.6c-2.5,3.1-8,9.4-8,9.4
			c6.5,0.6,13.1,0.4,19.8-1.1C70.6,107.4,78.6,84.8,69.6,71.4z"/>
		<path id="XMLID_1549_" class="st3" d="M57.3,70.9l1.6-0.2c2.1-0.2,3.7-2.2,3.4-4.3l-1.6-13.7c-0.2-2.1-2.2-3.7-4.3-3.4l-1.6,0.2
			c-2.1,0.2-3.7,2.2-3.4,4.3L53,67.5C53.2,69.6,55.1,71.1,57.3,70.9z"/>
		<polygon id="XMLID_1548_" class="st14" points="61.4,58.4 61.9,63.2 52.3,61.2 51.9,58.3 		"/>
		<g id="XMLID_1534_">
			<g id="XMLID_1546_">
				<polygon id="XMLID_1547_" class="st3" points="21.6,115 31.6,116.9 40.8,92.4 36.7,86.9 27.2,84.1 27.2,84.1 				"/>
			</g>
			<g id="XMLID_1544_" class="st4">
				<polygon id="XMLID_1545_" points="40.8,92.4 31.6,116.9 27.4,116.1 36.9,87.4 				"/>
			</g>
			<g id="XMLID_1541_">
				<g id="XMLID_1542_">
					<path id="XMLID_1543_" class="st5" d="M36.8,87.5c-0.1,0-2,5.5-4.3,12.5c-2.3,6.9-4.1,12.6-4,12.6c0.1,0,2-5.5,4.3-12.5
						C35.1,93.2,36.9,87.6,36.8,87.5z"/>
				</g>
			</g>
			<g id="XMLID_1539_">
				<path id="XMLID_1540_" class="st5" d="M31.7,109.6c0,0.1,0,0.2-0.1,0.2c-0.1,0-0.2,0-0.2-0.1c0-0.1,0-0.2,0.1-0.2
					C31.6,109.5,31.7,109.6,31.7,109.6z"/>
			</g>
			<g id="XMLID_1537_">
				<path id="XMLID_1538_" class="st5" d="M33.8,102.9c0,0.1,0,0.2-0.1,0.2c-0.1,0-0.2,0-0.2-0.1c0-0.1,0-0.2,0.1-0.2
					C33.7,102.8,33.8,102.8,33.8,102.9z"/>
			</g>
			<g id="XMLID_1535_">
				<path id="XMLID_1536_" class="st5" d="M36,96.1c0,0.1,0,0.2-0.1,0.2c-0.1,0-0.2,0-0.2-0.1c0-0.1,0-0.2,0.1-0.2
					C35.8,96,35.9,96.1,36,96.1z"/>
			</g>
		</g>
		<g id="XMLID_1529_">
			
				<ellipse id="XMLID_1533_" transform="matrix(0.8711 -0.4912 0.4912 0.8711 -34.1537 28.0425)" class="st9" cx="36.3" cy="79.1" rx="15.1" ry="15.1"/>
			<polyline id="XMLID_1532_" class="st10" points="43.3,91.6 35.3,86.4 33.4,88 27.8,84.9 28.2,82.3 21.8,78.4 			"/>
			<path id="XMLID_1531_" class="st11" d="M31.3,66.2c0,0-6.9,10.3-0.4,19.1c6.5,8.8,14,5.1,14,5.1s-9,5.5-16.8,0.2
				C20.3,85.4,19.7,69.5,31.3,66.2z"/>
			<path id="XMLID_1530_" class="st5" d="M38.8,71.8c0,1.4,1.2,2.6,2.6,2.6c1.4,0,2.6-1.2,2.6-2.6c0-1.4-1.2-2.6-2.6-2.6
				C40,69.2,38.8,70.4,38.8,71.8z"/>
		</g>
		<g>
			<path class="st15" d="M98.3,133.7l-36.6-13.5c-1.4-0.7-1.9-2.3-1.3-3.7L82.9,70c0.7-1.4,2.3-1.9,3.7-1.3l37.8,12.1
				c1.4,0.7,1.9,2.3,1.3,3.7L102,132.4C101.3,133.8,99.7,134.3,98.3,133.7z"/>
			<path class="st2" d="M99.6,136.4l-34.8-17.2c-1.4-0.7-1.9-2.3-1.3-3.7L88.9,64c0.7-1.4,2.3-1.9,3.7-1.3l34.8,17.2
				c1.4,0.7,1.9,2.3,1.3,3.7l-25.4,51.6C102.6,136.5,100.9,137.1,99.6,136.4z"/>
			
				<rect x="76.5" y="70.3" transform="matrix(0.8969 0.4423 -0.4423 0.8969 53.9444 -32.2328)" class="st5" width="39.2" height="58.5"/>
			
				<rect x="96.7" y="82.1" transform="matrix(0.8969 0.4423 -0.4423 0.8969 47.9208 -39.4634)" class="st16" width="23.8" height="2"/>
			
				<rect x="95.1" y="85.3" transform="matrix(0.8969 0.4423 -0.4423 0.8969 49.1793 -38.4307)" class="st17" width="23.8" height="2"/>
			
				<rect x="86.1" y="86.8" transform="matrix(0.8969 0.4423 -0.4423 0.8969 49.3133 -36.0278)" class="st17" width="31.6" height="2"/>
			<path class="st17" d="M101.8,69.8c-0.2,0.5,0,1.1,0.5,1.3l12.7,6.3c0.5,0.2,1.1,0,1.3-0.4L101.8,69.8z"/>
			<path class="st17" d="M117.6,72l-4.4-2.2c0.5-1.1,0.1-2.4-1-2.9c-1.1-0.5-2.4-0.1-2.9,1l-4.4-2.2c-0.5-0.2-1.1,0-1.4,0.5
				l-1.5,3.1c-0.2,0.5,0,1.1,0.5,1.4l12.7,6.3c0.5,0.2,1.1,0,1.4-0.5l1.5-3.1C118.3,72.8,118.1,72.2,117.6,72z M110.9,69.6
				c-0.4-0.2-0.6-0.7-0.4-1.2c0.2-0.4,0.7-0.6,1.2-0.4s0.6,0.7,0.4,1.2C111.8,69.7,111.3,69.8,110.9,69.6z"/>
			<path class="st18" d="M102.4,68.4l-0.4,0.8c-0.2,0.5,0,1.1,0.5,1.4l12.7,6.3c0.5,0.2,1.1,0,1.4-0.5l0.4-0.8L102.4,68.4z"/>
			<g>
				<path class="st17" d="M91.8,74.8l3.6,1.8l-1.5,3.1l-3.6-1.8L91.8,74.8 M91.3,73.4l-2.5,5l5.4,2.7l2.5-5L91.3,73.4L91.3,73.4z"/>
			</g>
			
				<rect x="91.2" y="93.2" transform="matrix(0.8969 0.4423 -0.4423 0.8969 52.2939 -35.8749)" class="st16" width="23.8" height="2"/>
			
				<rect x="89.6" y="96.4" transform="matrix(0.8969 0.4423 -0.4423 0.8969 53.5523 -34.8423)" class="st17" width="23.8" height="2"/>
			
				<rect x="80.6" y="97.9" transform="matrix(0.8969 0.4423 -0.4423 0.8969 53.6864 -32.4393)" class="st17" width="31.6" height="2"/>
			
				<rect x="80.7" y="102" transform="matrix(0.4423 -0.8969 0.8969 0.4423 -52.2104 134.0208)" class="st17" width="2" height="14.1"/>
			
				<rect x="76.3" y="106.8" transform="matrix(0.4423 -0.8969 0.8969 0.4423 -56.1772 131.0323)" class="st17" width="2" height="7.7"/>
			
				<rect x="96.5" y="109.7" transform="matrix(0.4423 -0.8969 0.8969 0.4423 -50.3848 152.5448)" class="st17" width="2" height="14.1"/>
			
				<rect x="92.1" y="114.6" transform="matrix(0.4423 -0.8969 0.8969 0.4423 -54.3517 149.5563)" class="st17" width="2" height="7.7"/>
			<g>
				<path class="st17" d="M86.3,86l3.6,1.8l-1.5,3.1l-3.6-1.8L86.3,86 M85.8,84.6l-2.5,5l5.4,2.7l2.5-5L85.8,84.6L85.8,84.6z"/>
			</g>
			
				<rect x="78.3" y="102.7" transform="matrix(0.8969 0.4423 -0.4423 0.8969 55.5368 -30.921)" class="st16" width="31.6" height="1.9"/>
			<g>
				<path class="st17" d="M79.3,100.1l10.8,5.3l-1.5,3.1l-10.8-5.3L79.3,100.1 M78.9,98.8l-2.5,5l12.7,6.2l2.5-5L78.9,98.8
					L78.9,98.8z"/>
			</g>
			<g>
				<path class="st9" d="M92.4,78.7c-0.2,0-0.5-0.2-0.6-0.4L91,75.8c-0.1-0.3,0.1-0.6,0.4-0.8c0.3-0.1,0.6,0.1,0.8,0.4l0.7,1.9
					l4.2-1.4c0.3-0.1,0.6,0.1,0.8,0.4c0.1,0.3-0.1,0.6-0.4,0.8l-4.8,1.6C92.5,78.7,92.4,78.7,92.4,78.7z"/>
			</g>
			<g>
				<path class="st9" d="M87,89.7c-0.1,0-0.2,0-0.3-0.1c-0.1-0.1-0.2-0.2-0.3-0.3l-0.8-2.5c-0.1-0.3,0.1-0.6,0.4-0.8
					c0.3-0.1,0.6,0.1,0.8,0.4l0.7,1.9l4.2-1.4c0.3-0.1,0.6,0.1,0.8,0.4c0.1,0.3-0.1,0.6-0.4,0.8l-4.8,1.6C87.1,89.7,87,89.7,87,89.7
					z"/>
			</g>
		</g>
		<g id="XMLID_1526_">
			<path class="st7" d="M47.9,65c1.8,3.3,3.1,6.8,4.1,10.4c1,3.6,1.6,7.3,1.7,11.1c0,3.7-0.4,7.5-1.1,11.1
				c-0.7,3.7-1.8,7.3-3.3,10.7c0.6-1.8,1.1-3.5,1.6-5.3c0.5-1.8,0.9-3.6,1.1-5.4c0.6-3.6,1-7.3,0.9-11c0-3.7-0.6-7.3-1.5-10.9
				C50.6,72,49.4,68.4,47.9,65z"/>
		</g>
		<path id="XMLID_1525_" class="st6" d="M54.5,97.3c0,0.3-0.2,0.5-0.5,0.5s-0.5-0.2-0.5-0.5c0-0.3,0.2-0.5,0.5-0.5
			C54.3,96.8,54.5,97.1,54.5,97.3z"/>
		<path id="XMLID_1524_" class="st6" d="M55.5,90.6c0,0.3-0.2,0.5-0.5,0.5c-0.3,0-0.5-0.2-0.5-0.5c0-0.3,0.2-0.5,0.5-0.5
			C55.3,90.1,55.5,90.3,55.5,90.6z"/>
		<path id="XMLID_1523_" class="st6" d="M55.7,83.9c0,0.3-0.2,0.5-0.5,0.5c-0.3,0-0.5-0.2-0.5-0.5c0-0.3,0.2-0.5,0.5-0.5
			C55.4,83.4,55.7,83.6,55.7,83.9z"/>
		<path id="XMLID_1522_" class="st6" d="M54.5,76.7c0,0.3-0.2,0.5-0.5,0.5c-0.3,0-0.5-0.2-0.5-0.5c0-0.3,0.2-0.5,0.5-0.5
			C54.3,76.1,54.5,76.4,54.5,76.7z"/>
		<path id="XMLID_1521_" class="st6" d="M52.4,70.5c0,0.3-0.2,0.5-0.5,0.5c-0.3,0-0.5-0.2-0.5-0.5c0-0.3,0.2-0.5,0.5-0.5
			C52.1,69.9,52.4,70.2,52.4,70.5z"/>
		<path id="XMLID_1520_" class="st6" d="M53.2,103.9c0,0.3-0.2,0.5-0.5,0.5c-0.3,0-0.5-0.2-0.5-0.5c0-0.3,0.2-0.5,0.5-0.5
			C53,103.4,53.2,103.6,53.2,103.9z"/>
		<path id="XMLID_1517_" class="st6" d="M72.4,84.5c0,0.3-0.2,0.6-0.5,0.6c-0.3,0-0.6-0.2-0.6-0.5c0-0.3,0.2-0.6,0.5-0.6
			C72.1,83.9,72.4,84.2,72.4,84.5z"/>
		<path id="XMLID_1516_" class="st6" d="M70.8,77.3c0,0.3-0.2,0.6-0.5,0.6c-0.3,0-0.6-0.2-0.6-0.5c0-0.3,0.2-0.6,0.5-0.6
			C70.5,76.8,70.8,77,70.8,77.3z"/>
		<path id="XMLID_1515_" class="st6" d="M68.2,71.3c0,0.3-0.2,0.6-0.5,0.6c-0.3,0-0.6-0.2-0.6-0.5c0-0.3,0.2-0.6,0.5-0.6
			S68.2,71,68.2,71.3z"/>
		<g id="XMLID_1492_">
			<g id="XMLID_1512_">
				
					<ellipse id="XMLID_1513_" transform="matrix(0.7343 -0.6788 0.6788 0.7343 -71.4638 48.9813)" class="st19" cx="26.8" cy="115.8" rx="7.5" ry="7.5"/>
			</g>
			<path id="XMLID_1511_" class="st20" d="M29.7,110c0,0-1.6,1.5-1.8,5.7c-0.2,4.1,1.3,4.7,1.3,4.7s3.6-0.3,4.4-3.5
				C34.4,113.6,32.3,110.5,29.7,110z"/>
			<g id="XMLID_1510_" class="st21">
				<path class="st22" d="M21.6,112.3c-0.6,1.1-1.3,3-0.8,4.4c0.1,0.3,0.5,0.2,0.5,0c0.2-0.6,0.1-1.4,0.3-2c0.1-0.7,0.4-1.4,0.7-2
					C22.6,112.2,21.8,112,21.6,112.3z"/>
			</g>
			<g id="XMLID_1493_">
				<g id="XMLID_1504_">
					<g id="XMLID_1505_">
						<g id="XMLID_1506_">
							<path id="XMLID_1507_" class="st13" d="M32.4,115.4c0-0.2,0-0.5,0-0.7l0.3-0.3l-0.3-1l-0.4,0c-0.1-0.2-0.2-0.4-0.3-0.5l0-0.6
								l-0.7-0.5l-0.2,0.5c-0.2-0.1-0.3-0.1-0.4-0.1l-0.3-0.6l-0.6,0.3l0.1,0.7c-0.1,0.1-0.2,0.3-0.3,0.4l-0.4-0.2l-0.2,1l0.4,0.4
								c0,0.2,0,0.5,0,0.7l-0.3,0.3l0.3,1l0.4,0c0.1,0.2,0.2,0.4,0.3,0.5l0,0.6l0.7,0.5l0.2-0.5c0.2,0.1,0.3,0.1,0.4,0.1l0.3,0.6
								l0.6-0.3l-0.1-0.7c0.1-0.1,0.2-0.3,0.3-0.4l0.4,0.2l0.2-1L32.4,115.4L32.4,115.4z M31.5,115.3c-0.1,0.6-0.5,0.8-0.9,0.5
								c-0.4-0.3-0.6-1-0.5-1.6c0.1-0.6,0.5-0.8,0.9-0.5C31.4,114.1,31.6,114.8,31.5,115.3z"/>
						</g>
					</g>
				</g>
				<g id="XMLID_1499_">
					<g id="XMLID_1500_">
						<g id="XMLID_1501_">
							<g id="XMLID_1502_">
								<path id="XMLID_1503_" class="st13" d="M31.5,115.3c0,0,0-0.1,0-0.3c0-0.2,0-0.5-0.1-0.8c-0.1-0.2-0.1-0.3-0.3-0.4
									c-0.1-0.1-0.2-0.2-0.4-0.3c-0.1,0-0.1,0-0.2,0c-0.1,0-0.1,0-0.2,0.1c-0.1,0.1-0.2,0.3-0.3,0.5c0,0.2,0,0.5,0,0.7
									c0,0.1,0.1,0.2,0.1,0.3c0,0.1,0.1,0.2,0.2,0.3c0.1,0.2,0.2,0.3,0.4,0.3c0.1,0.1,0.2,0.1,0.3,0c0.2-0.1,0.3-0.2,0.4-0.4
									C31.4,115.4,31.5,115.3,31.5,115.3c0,0,0,0.1-0.1,0.2c-0.1,0.1-0.2,0.3-0.4,0.3c-0.1,0-0.2,0-0.3,0
									c-0.1-0.1-0.2-0.2-0.4-0.3c-0.1-0.1-0.1-0.2-0.1-0.3c0-0.1-0.1-0.2-0.1-0.3c-0.1-0.2-0.1-0.5,0-0.7c0-0.2,0.1-0.4,0.3-0.5
									c0.1-0.1,0.1-0.1,0.2-0.1c0.1,0,0.1,0,0.2,0c0.1,0,0.3,0.1,0.4,0.2c0.1,0.1,0.2,0.3,0.3,0.4c0.1,0.3,0.1,0.6,0.1,0.7
									C31.5,115.2,31.4,115.3,31.5,115.3z"/>
							</g>
						</g>
					</g>
				</g>
				<g id="XMLID_1494_">
					<g id="XMLID_1495_">
						<g id="XMLID_1496_">
							<g id="XMLID_1497_">
								<path id="XMLID_1498_" class="st13" d="M32.4,115.4C32.4,115.4,32.4,115.4,32.4,115.4c0,0,0.1,0.1,0.1,0.1
									c0.1,0.1,0.2,0.2,0.3,0.3l0,0c-0.1,0.2-0.1,0.6-0.2,0.9l0,0c-0.1-0.1-0.3-0.1-0.4-0.2l0,0l0,0c-0.1,0.2-0.2,0.3-0.3,0.4l0,0
									l0,0c0,0.2,0.1,0.4,0.1,0.7l0,0c-0.2,0.1-0.4,0.2-0.6,0.3l0,0c-0.1-0.2-0.2-0.4-0.3-0.6l0,0l0,0c-0.1,0-0.3,0-0.4-0.1l0,0
									l0,0c-0.1,0.2-0.1,0.3-0.2,0.5l0,0c-0.2-0.2-0.4-0.3-0.7-0.5l0,0c0-0.2,0-0.4,0-0.6l0,0l0,0c-0.1-0.1-0.2-0.3-0.3-0.5l0,0
									l0,0c-0.1,0-0.3,0-0.4,0l0,0c-0.1-0.3-0.2-0.7-0.3-1l0,0c0.1-0.1,0.2-0.2,0.3-0.3l0,0l0,0c0-0.2,0-0.5,0-0.7v0l0,0l0,0
									c-0.1-0.1-0.2-0.3-0.4-0.4l0,0c0.1-0.3,0.1-0.6,0.2-1l0,0c0.1,0.1,0.3,0.1,0.4,0.2l0,0l0,0c0.1-0.2,0.2-0.3,0.3-0.4l0,0l0,0
									c0-0.2-0.1-0.4-0.1-0.7l0,0c0.2-0.1,0.4-0.2,0.6-0.3l0,0c0.1,0.2,0.2,0.4,0.3,0.6l0,0l0,0c0.1,0,0.3,0,0.4,0.1l0,0l0,0
									c0.1-0.2,0.1-0.3,0.2-0.5l0,0c0.2,0.2,0.5,0.3,0.7,0.5l0,0c0,0.2,0,0.4,0,0.6l0,0l0,0c0.1,0.2,0.2,0.4,0.3,0.5l0,0l0,0
									c0.1,0,0.3,0,0.4,0l0,0c0.1,0.4,0.2,0.7,0.3,1l0,0c-0.1,0.1-0.2,0.2-0.3,0.3l0,0l0,0c0,0.2,0,0.4,0,0.5
									C32.4,115.3,32.4,115.4,32.4,115.4C32.4,115.4,32.4,115.4,32.4,115.4C32.4,115.4,32.4,115.4,32.4,115.4c0-0.1,0-0.1,0-0.2
									c0-0.1,0-0.3,0-0.5l0,0c0.1-0.1,0.2-0.2,0.3-0.3l0,0l0,0c-0.1-0.3-0.2-0.6-0.3-1l0,0l0,0c-0.1,0-0.3,0-0.4,0l0,0
									c-0.1-0.2-0.2-0.4-0.4-0.6l0,0c0-0.2,0-0.4,0-0.6l0,0l0,0c-0.2-0.2-0.4-0.3-0.7-0.5l0,0l0,0c-0.1,0.2-0.1,0.3-0.2,0.5l0,0
									c-0.1-0.1-0.3-0.1-0.5-0.1l0,0c-0.1-0.2-0.2-0.4-0.3-0.6l0,0l0,0c-0.2,0.1-0.4,0.2-0.6,0.3l0,0l0,0c0,0.2,0.1,0.4,0.1,0.7
									l0,0c-0.1,0.1-0.2,0.3-0.3,0.4l0,0c-0.1-0.1-0.3-0.1-0.4-0.2l0,0l0,0c-0.1,0.3-0.1,0.6-0.2,1l0,0l0,0
									c0.1,0.1,0.2,0.3,0.4,0.4l0,0v0c0,0.2,0,0.5,0,0.7l0,0c-0.1,0.1-0.2,0.2-0.3,0.3l0,0l0,0c0.1,0.4,0.2,0.7,0.3,1l0,0l0,0
									c0.1,0,0.3,0,0.4,0l0,0c0.1,0.2,0.2,0.4,0.4,0.6l0,0c0,0.2,0,0.4,0,0.6l0,0l0,0c0.2,0.2,0.5,0.4,0.7,0.5l0,0l0,0
									c0.1-0.2,0.1-0.3,0.2-0.5l0,0c0.2,0.1,0.3,0.1,0.5,0.1l0,0c0.1,0.2,0.2,0.4,0.3,0.6l0,0l0,0c0.2-0.1,0.4-0.2,0.6-0.3l0,0
									l0,0c0-0.2-0.1-0.4-0.1-0.7l0,0c0.1-0.1,0.2-0.3,0.3-0.5l0,0c0.1,0.1,0.3,0.1,0.4,0.2l0,0l0,0c0.1-0.4,0.1-0.7,0.2-1l0,0
									l0,0c-0.1-0.1-0.2-0.2-0.3-0.3C32.5,115.5,32.5,115.5,32.4,115.4C32.4,115.4,32.4,115.4,32.4,115.4z"/>
							</g>
						</g>
					</g>
				</g>
			</g>
		</g>
		<path id="XMLID_1491_" class="st23" d="M57.1,43.6c0.1,0,0.1,0,0.2,0c2.9,0.4,4.6-3.3,3.6-5.7c-0.3-0.8-1-1.4-1.8-1.7
			c-0.1,0-0.1,0-0.2-0.1c0.9,0.9,1.5,2.4,1,4.1C59.4,42.1,58.5,43.3,57.1,43.6z"/>
		<path id="XMLID_1490_" class="st23" d="M66.9,49.2c0.1,0,0.1,0,0.2,0c2.9,0.6,4.9-5.1,4-7.5c-0.3-0.8-0.8-2.3-1.6-2.6
			c0,0,0-0.5,0-0.5c0,0,0-0.2,0-0.2c0.9,0.9,1.1,4.1,0.7,5.8C69.6,45.9,68.9,45.6,66.9,49.2z"/>
		<g id="XMLID_1489_">
			<path class="st24" d="M58.5,53.5C58.6,53.5,58.6,53.5,58.5,53.5c1.4-0.1,1.7-1.8,1.1-2.7c-0.2-0.3-0.5-0.5-0.9-0.6c0,0,0,0,0,0
				c0,0,0,0,0,0c0.5,0.3,0.8,0.9,0.8,1.6C59.4,52.6,59.1,53.2,58.5,53.5z"/>
		</g>
		
			<ellipse id="XMLID_1488_" transform="matrix(0.3803 -0.9249 0.9249 0.3803 -0.7701 75.1975)" class="st3" cx="55.7" cy="38.2" rx="21.1" ry="21.1"/>
		<path id="XMLID_1485_" class="st11" d="M19.9,61.9c0,0-8.1-44.9,35.1-53.3C55.7,9.8,5.1,6.1,19.9,61.9z"/>
		<g>
			<path id="XMLID_1487_" class="st25" d="M58.2,45.5c-0.1,0-0.1,0-0.2,0c1.3-0.4,2.2-1.6,2.6-3.3c0.5-1.7,0-3.2-0.8-4.1
				c-0.1,0-0.1-0.1-0.2-0.1c-0.6-0.1-1.3-0.1-2,0.3C55.2,39.9,55.2,45.1,58.2,45.5z"/>
			<g id="XMLID_1486_">
				<path class="st2" d="M58,45.5c0.1,0,0.1,0,0.2,0c2.6,0.4,4.2-3.4,3.3-5.7c-0.3-0.8-0.9-1.4-1.6-1.6c-0.1,0-0.1,0-0.2-0.1
					c0.8,0.9,1.3,2.4,0.8,4.1C60.2,43.9,59.3,45.1,58,45.5z"/>
			</g>
			<path id="XMLID_1484_" class="st5" d="M57.8,43.1c-0.1,0.7,0.1,1.3,0.5,1.4s0.9-0.4,1.1-1.1c0.1-0.7-0.1-1.3-0.5-1.4
				S58,42.4,57.8,43.1z"/>
		</g>
		<g>
			<path id="XMLID_1483_" class="st25" d="M68.7,46c-0.1,0-0.1,0-0.2,0c1.3-0.4,2.2-1.6,2.6-3.3c0.5-1.7,0-3.2-0.8-4.1
				c-0.1,0-0.1-0.1-0.2-0.1c-0.6-0.1-1.3-0.1-2,0.3C65.7,40.3,65.6,45.6,68.7,46z"/>
			<g id="XMLID_1482_">
				<path class="st2" d="M68.5,45.9c0.1,0,0.1,0,0.2,0c2.6,0.4,4.2-3.4,3.3-5.7c-0.3-0.8-0.9-1.4-1.6-1.6c-0.1,0-0.1,0-0.2-0.1
					c0.8,0.9,1.3,2.4,0.8,4.1C70.7,44.3,69.8,45.6,68.5,45.9z"/>
			</g>
			<path id="XMLID_1481_" class="st5" d="M68.3,43.5c-0.1,0.7,0.1,1.3,0.5,1.4c0.4,0.1,0.9-0.4,1.1-1.1c0.1-0.7-0.1-1.3-0.5-1.4
				C68.9,42.3,68.4,42.8,68.3,43.5z"/>
		</g>
		<path id="XMLID_1480_" class="st6" d="M43.5,39.5c-0.1-0.1-0.1-0.3,0-0.4c0.1-0.1,0.3-0.1,0.4,0c0.1,0.1,0.1,0.3,0,0.4
			C43.8,39.6,43.6,39.6,43.5,39.5z"/>
		<path id="XMLID_1479_" class="st6" d="M43.1,42c-0.1-0.1-0.1-0.3,0-0.4c0.1-0.1,0.3-0.1,0.4,0c0.1,0.1,0.1,0.3,0,0.4
			C43.5,42.1,43.3,42.1,43.1,42z"/>
		<path id="XMLID_1478_" class="st6" d="M43,44.8c-0.1-0.1-0.1-0.3,0-0.4c0.1-0.1,0.3-0.1,0.4,0c0.1,0.1,0.1,0.3,0,0.4
			C43.3,44.9,43.1,44.9,43,44.8z"/>
		<path id="XMLID_1477_" class="st6" d="M43.4,47.7c-0.1-0.1-0.1-0.3,0-0.4c0.1-0.1,0.3-0.1,0.4,0c0.1,0.1,0.1,0.3,0,0.4
			C43.8,47.8,43.6,47.8,43.4,47.7z"/>
		<path id="XMLID_1476_" class="st6" d="M44.2,50.7c-0.1-0.1-0.1-0.3,0-0.4c0.1-0.1,0.3-0.1,0.4,0c0.1,0.1,0.1,0.3,0,0.4
			C44.5,50.9,44.3,50.9,44.2,50.7z"/>
		<path id="XMLID_1475_" class="st6" d="M45.6,53.2c-0.1-0.1-0.1-0.3,0-0.4c0.1-0.1,0.3-0.1,0.4,0c0.1,0.1,0.1,0.3,0,0.4
			C45.9,53.3,45.8,53.3,45.6,53.2z"/>
		<path id="XMLID_1474_" class="st6" d="M47.3,55.5c-0.1-0.1-0.1-0.3,0-0.4c0.1-0.1,0.3-0.1,0.4,0c0.1,0.1,0.1,0.3,0,0.4
			C47.7,55.7,47.5,55.7,47.3,55.5z"/>
		<g id="XMLID_1472_">
			<path class="st26" d="M49.7,58.2c-2.8-1.8-4.9-4.6-6.2-7.7c-1.2-3.1-1.5-6.6-1.1-9.9c0.4-3.3,1.3-6.6,2.8-9.6
				c1.5-3,3.5-5.7,6.1-7.8c-1.3,1.1-2.3,2.4-3.3,3.7c-1,1.3-1.8,2.8-2.5,4.3c-1.5,3-2.3,6.2-2.7,9.5c-0.1,0.8-0.1,1.6-0.2,2.5
				c0,0.8,0,1.6,0.1,2.5c0.2,1.6,0.5,3.3,1.1,4.8c0.6,1.5,1.4,3,2.4,4.3C47.1,56,48.3,57.3,49.7,58.2z"/>
		</g>
		<path id="XMLID_1471_" class="st27" d="M71,21.4c0,0-31.2,25.7-35,20.7c-3.8-5-4-14.7-4-14.7l21.5-15.9L71,21.4z"/>
		<path id="XMLID_1470_" class="st2" d="M71.4,21.5c0,0-34.8,22.9-38.8,17.6c-4-5.3-3.8-15.1-3.8-15.1l23.9-14L71.4,21.5z"/>
		<path id="XMLID_1469_" class="st25" d="M65.2,51.1c-1.9,1.3-8.4,1.3-12.5,0.2c0,0,1.3,4.7-0.8,7.3c0,0,5.3,1.3,12.1-1.7
			C63.9,57,66,54.2,65.2,51.1z"/>
		<g id="XMLID_1456_">
			<path id="XMLID_1468_" class="st28" d="M65.8,52.7c-2.2,1.4-8.1,2-11.7,0.1c0,0,0.4,3.1-2.3,5.9c0,0,5.2,1.7,12.3-0.3
				C64.1,58.4,66.2,55.9,65.8,52.7z"/>
			<path id="XMLID_1467_" class="st29" d="M61.2,59c0,0,0.6-1.5-1.4-2c-2-0.5-3.1-2-3.2-3.4c0,0-1.3-0.3-1.5-0.5
				c-0.3-0.2-0.8-0.3-0.8-0.3s-0.3,3.3-0.9,4.2c-0.6,0.9-1.2,1.7-1.2,1.7S56.5,59.9,61.2,59z"/>
			<path id="XMLID_1466_" class="st6" d="M65.1,54.9c0,0.1-0.1,0.2-0.2,0.2c-0.1,0-0.2-0.1-0.2-0.2c0-0.1,0.1-0.2,0.2-0.2
				C65.1,54.7,65.1,54.8,65.1,54.9z"/>
			<path id="XMLID_1465_" class="st6" d="M64.8,56.1c0,0.1-0.1,0.2-0.2,0.2c-0.1,0-0.2-0.1-0.2-0.2c0-0.1,0.1-0.2,0.2-0.2
				C64.8,56,64.8,56.1,64.8,56.1z"/>
			<path id="XMLID_1464_" class="st6" d="M64.4,57.3c0,0.1-0.1,0.2-0.2,0.2c-0.1,0-0.2-0.1-0.2-0.2s0.1-0.2,0.2-0.2
				C64.3,57.2,64.4,57.2,64.4,57.3z"/>
			<path id="XMLID_1463_" class="st6" d="M54.8,55c0,0.1-0.1,0.2-0.2,0.2c-0.1,0-0.2-0.1-0.2-0.2c0-0.1,0.1-0.2,0.2-0.2
				C54.7,54.8,54.8,54.9,54.8,55z"/>
			<path id="XMLID_1462_" class="st6" d="M54.5,56.3c0,0.1-0.1,0.2-0.2,0.2c-0.1,0-0.2-0.1-0.2-0.2c0-0.1,0.1-0.2,0.2-0.2
				C54.4,56.1,54.5,56.2,54.5,56.3z"/>
			<path id="XMLID_1461_" class="st6" d="M54,57.4c0,0.1-0.1,0.2-0.2,0.2c-0.1,0-0.2-0.1-0.2-0.2c0-0.1,0.1-0.2,0.2-0.2
				C54,57.3,54,57.4,54,57.4z"/>
			<g id="XMLID_1459_">
				<path class="st5" d="M54.2,52.8c0.1,1.1,0,2.2-0.4,3.3c-0.2,0.5-0.5,1-0.8,1.5c-0.3,0.4-0.7,0.9-1.2,1.2
					c0.4-0.4,0.7-0.9,0.9-1.3c0.3-0.5,0.5-0.9,0.7-1.4C53.8,54.9,54,53.8,54.2,52.8z"/>
			</g>
			<g id="XMLID_1457_">
				<path class="st30" d="M65.8,52.9c0.1,1,0,2-0.2,3c-0.3,1-0.7,1.9-1.5,2.6c0.5-0.9,0.9-1.8,1.1-2.7
					C65.5,54.9,65.6,53.9,65.8,52.9z"/>
			</g>
		</g>
		<g id="XMLID_1132_">
			<path id="XMLID_1214_" class="st6" d="M55.2,113.5c0.3,0.2,0.3,0.5,0.2,0.8c-0.2,0.3-0.5,0.3-0.8,0.2c-0.3-0.2-0.3-0.5-0.2-0.8
				C54.6,113.4,55,113.3,55.2,113.5z"/>
			<path id="XMLID_1213_" class="st6" d="M60.2,118.8c0.3,0.2,0.3,0.5,0.2,0.8c-0.2,0.3-0.5,0.3-0.8,0.2c-0.3-0.2-0.3-0.5-0.2-0.8
				C59.5,118.7,59.9,118.6,60.2,118.8z"/>
			<g id="XMLID_1211_">
				<polygon id="XMLID_1212_" class="st3" points="37.2,108.4 69.9,116.7 69.8,122.9 31.1,124.9 31.1,124.9 33.2,111 				"/>
			</g>
			<g id="XMLID_1150_" class="st4">
				<polygon id="XMLID_1153_" points="65.5,123.1 62.4,117.8 33,111.1 37.2,108.4 69.9,116.7 69.8,122.9 				"/>
			</g>
			<g id="XMLID_1144_">
				<g id="XMLID_1146_">
					<path id="XMLID_1148_" class="st5" d="M65.5,123.1c0,0,0-0.1-0.2-0.4c-0.2-0.3-0.4-0.6-0.6-1.1c-0.6-1-1.3-2.3-2.2-3.9l0-0.1
						l-0.1,0c-3.1-0.7-7.2-1.7-11.6-2.7c-4.9-1.1-9.3-2.1-12.5-2.8c-1.6-0.3-2.8-0.6-3.8-0.8c-0.4-0.1-0.8-0.1-1-0.2
						c-0.2,0-0.4-0.1-0.4,0c0,0,0.1,0.1,0.4,0.1c0.3,0.1,0.6,0.2,1,0.3c1,0.2,2.2,0.6,3.8,0.9c3.2,0.8,7.6,1.8,12.5,2.9
						c4.5,1,8.5,1.9,11.7,2.6l-0.1-0.1c1,1.6,1.8,2.9,2.4,3.9c0.3,0.4,0.5,0.8,0.7,1C65.4,123,65.5,123.1,65.5,123.1z"/>
				</g>
			</g>
			<g id="XMLID_1141_">
				<path id="XMLID_1142_" class="st5" d="M52.8,114.2c0.1,0.1,0,0.2,0,0.3c-0.1,0.1-0.2,0-0.3,0c-0.1-0.1,0-0.2,0-0.3
					C52.6,114.1,52.7,114.2,52.8,114.2z"/>
			</g>
			<g id="XMLID_1137_">
				<path id="XMLID_1139_" class="st5" d="M60.3,116.1c0.1-0.1,0.1-0.2,0-0.3c-0.1-0.1-0.2-0.1-0.3,0c-0.1,0.1-0.1,0.2,0,0.3
					C60.1,116.2,60.2,116.2,60.3,116.1z"/>
			</g>
			<g id="XMLID_1134_">
				<path id="XMLID_1136_" class="st5" d="M46,112.6c0.1,0.1,0,0.2,0,0.3c-0.1,0.1-0.2,0-0.3,0c-0.1-0.1,0-0.2,0-0.3
					C45.9,112.5,46,112.5,46,112.6z"/>
			</g>
		</g>
		<g id="XMLID_203_">
			<g id="XMLID_672_">
				<g id="XMLID_690_">
					<g id="XMLID_1042_">
						<g id="XMLID_1119_" class="st31">
							<path d="M78.2,121.7c1.3-0.5,4.5-1.7,7.5-2.2c2.1-0.3,5.4-0.3,6.3-0.8c0.9-0.5-1.3-4-4.1-5.3c-4.3-2.1-11.4-2.1-13.5,4.2
								C74.2,119.6,78.2,121.7,78.2,121.7z"/>
						</g>
						<g id="XMLID_1057_">
							<defs>
								<path id="XMLID_1059_" d="M78.2,121.7c1.3-0.5,4.5-1.7,7.5-2.2c2.1-0.3,5.4-0.3,6.3-0.8c0.9-0.5-1.3-4-4.1-5.3
									c-4.3-2.1-11.4-2.1-13.5,4.2C74.2,119.6,78.2,121.7,78.2,121.7z"/>
							</defs>
							<use xlink:href="#XMLID_1059_"  style="overflow:visible;fill:#5A4A42;"/>
							<clipPath id="XMLID_2_">
								<use xlink:href="#XMLID_1059_"  style="overflow:visible;"/>
							</clipPath>
							<g id="XMLID_1117_" class="st32">
								<path d="M68,126.8c0.5,1.1,1.6,1.9,2.9,2.3c1.2,0.3,2.5,0.3,3.7,0c2.4-0.5,4.6-1.9,6-3.8c1.4-2,1.9-4.6,1.1-6.9
									c-0.8-2.3-2.9-4.1-5.4-4.2c-1.6-0.1-3.2,0.5-4.6,1.4c-1.6,1-3,2.2-3.9,3.9c-1.2,2.2-1.3,5-0.3,7.3"/>
							</g>
						</g>
					</g>
					<g id="XMLID_751_">
						<g id="XMLID_1037_">
							<path class="st19" d="M78,120.9c0.9,0.6,3.2,1.6,5.4,2.4c1.5,0.5,3.8,1.3,4.4,1.8c0.6,0.5-1.6,2.8-3.8,3.4
								c-3.5,0.9-8.8-0.1-9.4-5.1C74.7,121.8,78,120.9,78,120.9z"/>
						</g>
						<g id="XMLID_753_">
							<defs>
								<path id="XMLID_1011_" d="M78,120.9c0.9,0.6,3.2,1.6,5.4,2.4c1.5,0.5,3.8,1.3,4.4,1.8c0.6,0.5-1.6,2.8-3.8,3.4
									c-3.5,0.9-8.8-0.1-9.4-5.1C74.7,121.8,78,120.9,78,120.9z"/>
							</defs>
							<clipPath id="XMLID_3_">
								<use xlink:href="#XMLID_1011_"  style="overflow:visible;"/>
							</clipPath>
							<g id="XMLID_1015_" class="st33">
								<path d="M71.8,124.8c0.5,0.8,1.5,1.2,2.4,1.3c0.9,0.1,1.9-0.1,2.8-0.5c1.7-0.7,3.2-2,3.9-3.7c0.8-1.7,0.8-3.7-0.1-5.3
									c-0.9-1.6-2.7-2.6-4.6-2.4c-1.2,0.1-2.3,0.8-3.3,1.6c-1,0.9-1.9,2.1-2.4,3.4c-0.6,1.8-0.3,3.9,0.7,5.5"/>
							</g>
						</g>
					</g>
					<g id="XMLID_701_">
						<path class="st3" d="M67.8,121.2c0.1,6.4,9.6,6.5,10.5,0.4C79.4,114.3,67.7,113.5,67.8,121.2z"/>
					</g>
				</g>
				<g id="XMLID_682_">
					<path class="st3" d="M85.5,113.2c-1.8,0-4.1-0.3-5.6,0.7c-0.4,0.3,0,1,0.4,0.9c0.9-0.2,1.8-0.3,2.7-0.3c0.9,0,1.8,0.1,2.7-0.1
						C86.6,114.2,86.2,113.2,85.5,113.2z"/>
				</g>
			</g>
			<g id="XMLID_538_">
				<g id="XMLID_587_" class="st31">
					<g id="XMLID_592_">
						<g id="XMLID_594_">
							<path id="XMLID_599_" d="M74.7,117.9c-0.3-0.1-0.6-0.3-0.9-0.3l-0.2-0.8l-1.4,0.1l-0.2,0.8c-0.3,0.1-0.6,0.2-0.8,0.4
								l-0.7-0.4l-1,1l0.5,0.7c-0.1,0.3-0.3,0.6-0.3,0.9l-0.8,0.2l0.1,1.4l0.8,0.2c0.1,0.3,0.2,0.6,0.4,0.8l-0.4,0.7l1,1l0.7-0.5
								c0.3,0.1,0.6,0.3,0.9,0.3l0.2,0.8l1.4-0.1l0.2-0.8c0.3-0.1,0.6-0.2,0.8-0.4l0.7,0.4l1-1l-0.5-0.7c0.1-0.3,0.3-0.6,0.3-0.9
								l0.8-0.2l-0.1-1.4l-0.8-0.2c-0.1-0.3-0.2-0.6-0.4-0.8l0.4-0.7l-1-1L74.7,117.9L74.7,117.9z M74,119.8
								c0.6,0.6,0.6,1.5,0.1,2.1c-0.6,0.6-1.5,0.6-2.1,0.1c-0.6-0.6-0.6-1.5-0.1-2.1C72.5,119.3,73.4,119.2,74,119.8z"/>
						</g>
					</g>
				</g>
				<g id="XMLID_561_">
					<g id="XMLID_562_">
						<g id="XMLID_563_">
							<g id="XMLID_564_">
								<path id="XMLID_584_" class="st13" d="M74.2,119.8c0,0-0.1-0.1-0.3-0.2c-0.2-0.1-0.6-0.2-1-0.2c-0.2,0-0.4,0.1-0.7,0.3
									c-0.2,0.2-0.4,0.4-0.5,0.6c-0.1,0.1-0.1,0.3-0.1,0.4c0,0.2,0,0.3,0,0.5c0.1,0.3,0.2,0.6,0.5,0.8c0.2,0.2,0.6,0.4,0.9,0.4
									c0.2,0,0.3,0,0.5,0c0.1,0,0.3-0.1,0.4-0.1c0.3-0.1,0.5-0.3,0.6-0.6c0.1-0.2,0.2-0.5,0.2-0.7c0-0.4-0.1-0.8-0.3-1
									C74.3,119.9,74.2,119.8,74.2,119.8c0,0,0.1,0.1,0.2,0.3c0.1,0.2,0.3,0.5,0.2,1c0,0.2-0.1,0.4-0.2,0.6
									c-0.1,0.2-0.3,0.4-0.6,0.5c-0.1,0.1-0.3,0.1-0.4,0.1c-0.1,0-0.3,0-0.4,0c-0.3,0-0.6-0.2-0.8-0.4c-0.2-0.2-0.4-0.5-0.4-0.8
									c0-0.1,0-0.3,0-0.4c0-0.1,0-0.3,0.1-0.4c0.1-0.3,0.3-0.5,0.5-0.6c0.2-0.1,0.4-0.2,0.6-0.3c0.4-0.1,0.8,0,1,0.1
									C74.1,119.7,74.2,119.8,74.2,119.8z"/>
							</g>
						</g>
					</g>
				</g>
				<g id="XMLID_540_">
					<g id="XMLID_557_">
						<g id="XMLID_558_">
							<g id="XMLID_559_">
								<path id="XMLID_560_" class="st13" d="M74.7,117.9C74.7,117.9,74.7,117.9,74.7,117.9c0.1,0,0.1-0.1,0.2-0.1
									c0.1-0.1,0.3-0.2,0.5-0.4l0,0c0.3,0.2,0.6,0.6,1,1l0,0c-0.1,0.2-0.3,0.5-0.4,0.7l0,0l0,0c0.2,0.2,0.3,0.5,0.4,0.8l0,0l0,0
									c0.3,0,0.5,0.1,0.8,0.2l0,0c0,0.4,0,0.9,0,1.4l0,0c-0.3,0.1-0.5,0.1-0.8,0.2l0,0l0,0c-0.1,0.3-0.2,0.6-0.3,0.8l0,0l0,0
									c0.1,0.2,0.3,0.5,0.5,0.7l0,0c-0.3,0.3-0.6,0.7-1,1l0,0c-0.2-0.1-0.5-0.3-0.7-0.4l0,0l0,0c-0.2,0.2-0.5,0.3-0.8,0.4l0,0l0,0
									c0,0.3-0.1,0.5-0.2,0.8l0,0c-0.4,0-0.9,0-1.4,0.1l0,0c-0.1-0.3-0.1-0.5-0.2-0.8l0,0l0,0c-0.3-0.1-0.6-0.2-0.8-0.3l0,0l0,0
									l0,0c-0.2,0.2-0.5,0.3-0.7,0.5l0.1,0c-0.3-0.3-0.7-0.6-1-1l0,0.1c0.1-0.2,0.3-0.5,0.4-0.7l0,0l0,0c-0.2-0.3-0.3-0.5-0.4-0.8
									l0,0l0,0c-0.3-0.1-0.6-0.1-0.8-0.2l0,0c0-0.5,0-0.9-0.1-1.4l0,0c0.3-0.1,0.6-0.1,0.8-0.2l0,0l0,0c0.1-0.3,0.2-0.6,0.3-0.8
									l0,0l0,0c-0.2-0.2-0.3-0.5-0.5-0.7l0,0c0.3-0.4,0.7-0.7,1-1l0,0c0.3,0.1,0.5,0.3,0.7,0.4l0,0l0,0c0.3-0.2,0.6-0.3,0.8-0.4
									l0,0l0,0c0.1-0.3,0.1-0.6,0.2-0.8l0,0c0.5,0,1,0,1.4-0.1l0,0c0.1,0.3,0.2,0.6,0.2,0.8l0,0l0,0c0.3,0.1,0.5,0.2,0.7,0.2
									C74.6,117.8,74.6,117.9,74.7,117.9C74.7,117.9,74.7,117.9,74.7,117.9C74.7,117.9,74.7,117.9,74.7,117.9
									c-0.1,0-0.1-0.1-0.2-0.1c-0.1-0.1-0.4-0.2-0.7-0.2l0,0c-0.1-0.2-0.1-0.5-0.2-0.8l0,0l0,0c-0.4,0-0.9,0-1.4,0l0,0l0,0
									c0,0.3-0.1,0.5-0.2,0.8l0,0c-0.3,0.1-0.6,0.2-0.8,0.4l0,0c-0.2-0.1-0.5-0.3-0.7-0.4l0,0l0,0c-0.3,0.3-0.6,0.7-1,1l0,0l0,0
									c0.2,0.2,0.3,0.5,0.5,0.7l0,0c-0.1,0.3-0.3,0.6-0.3,0.9l0,0c-0.3,0.1-0.5,0.1-0.8,0.2l0,0l0,0c0,0.5,0,0.9,0.1,1.4l0,0l0,0
									c0.3,0.1,0.6,0.1,0.8,0.2l0,0c0.1,0.3,0.2,0.6,0.4,0.8l0,0c-0.1,0.2-0.3,0.5-0.4,0.7l0,0l0,0c0.3,0.3,0.7,0.6,1,1l0,0l0,0
									c0.2-0.2,0.5-0.3,0.7-0.5l0,0l0,0c0.3,0.1,0.6,0.3,0.9,0.3l0,0c0.1,0.3,0.1,0.6,0.2,0.8l0,0l0,0c0.5,0,1,0,1.4-0.1l0,0l0,0
									c0.1-0.3,0.1-0.6,0.2-0.8l0,0c0.3-0.1,0.6-0.2,0.8-0.4l0,0c0.3,0.1,0.5,0.3,0.7,0.4l0,0l0,0c0.3-0.4,0.7-0.7,1-1l0,0l0,0
									c-0.2-0.2-0.3-0.5-0.5-0.7l0,0c0.2-0.3,0.3-0.6,0.3-0.9l0,0c0.3-0.1,0.6-0.2,0.8-0.2l0,0l0,0c0-0.5,0-1-0.1-1.4l0,0l0,0
									c-0.3-0.1-0.6-0.1-0.8-0.2l0,0c-0.1-0.3-0.2-0.6-0.4-0.8l0,0c0.2-0.3,0.3-0.5,0.4-0.7l0,0l0,0c-0.4-0.4-0.8-0.7-1-0.9l0,0
									l0,0c-0.2,0.2-0.4,0.3-0.5,0.4C74.8,117.8,74.8,117.8,74.7,117.9C74.7,117.9,74.7,117.9,74.7,117.9z"/>
							</g>
						</g>
					</g>
				</g>
			</g>
		</g>
	</g>
</g>
</svg>
