<?xml version="1.0" encoding="UTF-8"?><svg id="Layer_2" xmlns="http://www.w3.org/2000/svg" viewBox="0 0 54 51"><defs><style>.cls-1{fill:#fff;}</style></defs><g id="Layer_1-2"><g><path class="cls-1" d="M34.9,39.1c-.14,.07-.27,.13-.4,.19-1.01,.42-2.04,.83-3.04,1.29-.24,.11-.5,.39-.56,.64-.23,.9-.39,1.83-.56,2.75-.1,.55-.39,.8-.95,.79-1.57-.02-3.14-.02-4.7,0-.64,.01-.93-.29-1.03-.9-.14-.85-.33-1.69-.48-2.54-.07-.42-.26-.65-.71-.8-.99-.34-1.94-.82-2.92-1.19-.25-.09-.63-.09-.84,.04-.82,.49-1.61,1.04-2.39,1.59-.41,.29-.75,.28-1.11-.09-1.15-1.17-2.31-2.34-3.48-3.5-.37-.36-.37-.71-.09-1.11,.54-.79,1.09-1.58,1.58-2.41,.13-.22,.14-.6,.05-.85-.38-1.04-.81-2.06-1.26-3.07-.1-.22-.36-.47-.58-.52-.88-.22-1.77-.39-2.66-.54-.64-.11-.92-.41-.91-1.09,.04-1.53,.04-3.06,0-4.59-.02-.69,.28-.98,.91-1.08,.87-.15,1.74-.3,2.59-.52,.26-.07,.55-.36,.67-.62,.44-.96,.79-1.96,1.24-2.92,.19-.39,.17-.66-.07-1-.54-.76-1.03-1.56-1.56-2.33-.28-.41-.26-.75,.1-1.11,1.17-1.16,2.33-2.33,3.48-3.5,.36-.36,.7-.36,1.11-.08,.72,.51,1.47,.98,2.19,1.5,.4,.29,.71,.34,1.19,.09,.89-.46,1.82-.85,2.78-1.16,.46-.15,.62-.39,.7-.81,.16-.85,.34-1.69,.48-2.54,.1-.61,.38-.9,1.03-.89,1.57,.03,3.14,.02,4.7,0,.57,0,.85,.25,.95,.8,.16,.9,.35,1.79,.51,2.68,.07,.4,.25,.6,.67,.75,.99,.35,1.94,.82,2.92,1.18,.26,.1,.66,.08,.9-.06,.8-.47,1.58-1,2.34-1.54,.45-.32,.8-.27,1.16,.11,1.14,1.15,2.28,2.3,3.44,3.44,.36,.36,.39,.71,.11,1.12-.52,.78-1.01,1.57-1.55,2.33-.24,.34-.27,.61-.09,1,.45,.95,.86,1.93,1.21,2.93,.15,.42,.38,.58,.77,.66,.87,.16,1.73,.35,2.59,.51,.57,.1,.85,.38,.84,1-.02,1.58-.02,3.16,0,4.74,0,.62-.28,.89-.84,.99-.89,.16-1.79,.31-2.66,.55-.26,.07-.54,.36-.66,.63-.44,.96-.85,1.94-1.21,2.93-.1,.27-.09,.67,.04,.91,.47,.81,1,1.58,1.53,2.35,.32,.47,.27,.84-.14,1.23-1.13,1.1-2.24,2.22-3.33,3.34-.42,.43-.8,.46-1.28,.1-.73-.54-1.5-1.02-2.26-1.52-.14-.09-.29-.17-.45-.27h0Zm3.3,.65c.93-.95,1.84-1.85,2.69-2.79,.11-.12,.09-.51-.02-.68-.47-.78-.98-1.53-1.5-2.28-.26-.37-.23-.68-.04-1.09,.57-1.27,1.06-2.59,1.64-3.86,.14-.31,.46-.64,.76-.73,.87-.26,1.76-.42,2.65-.57,.39-.07,.56-.22,.55-.62-.01-1.08,.03-2.17-.03-3.25-.01-.22-.3-.55-.51-.61-.87-.24-1.78-.35-2.65-.6-.31-.09-.64-.42-.77-.72-.58-1.27-1.06-2.59-1.63-3.86-.2-.44-.21-.76,.06-1.15,.52-.74,1.03-1.5,1.5-2.28,.1-.16,.11-.51,.01-.62-.88-.95-1.79-1.88-2.71-2.81-.96,.64-1.82,1.2-2.66,1.79-.41,.28-.75,.28-1.21,.06-1.24-.58-2.51-1.1-3.78-1.59-.44-.17-.7-.36-.78-.85-.14-.87-.37-1.73-.51-2.61-.07-.44-.27-.57-.68-.57-1.05,.01-2.11,.03-3.16,0-.44-.01-.59,.18-.66,.59-.14,.85-.37,1.69-.5,2.54-.09,.55-.39,.76-.88,.94-1.21,.45-2.42,.93-3.59,1.49-.53,.26-.92,.29-1.41-.06-.83-.6-1.69-1.14-2.45-1.65l-3.06,3c.57,.87,1.13,1.77,1.73,2.63,.27,.39,.26,.71,.06,1.15-.57,1.25-1.11,2.52-1.58,3.8-.18,.48-.4,.74-.89,.82-.87,.15-1.73,.37-2.59,.52-.4,.07-.53,.25-.53,.64,.01,1.06,.02,2.12,0,3.18,0,.42,.13,.61,.56,.68,.87,.14,1.72,.37,2.59,.52,.47,.08,.68,.32,.85,.77,.49,1.31,1.03,2.6,1.61,3.88,.19,.41,.2,.72-.05,1.09-.6,.89-1.18,1.79-1.83,2.78,.94,.91,1.82,1.8,2.75,2.63,.14,.13,.55,.13,.73,.02,.74-.44,1.44-.93,2.14-1.44,.43-.31,.78-.31,1.28-.08,1.24,.58,2.53,1.04,3.78,1.6,.3,.14,.63,.47,.72,.78,.26,.87,.41,1.77,.57,2.67,.07,.39,.22,.55,.62,.55,1.08-.01,2.16,.03,3.24-.02,.21-.01,.54-.3,.6-.52,.23-.85,.4-1.73,.54-2.6,.08-.51,.36-.72,.83-.89,1.26-.47,2.5-.99,3.72-1.56,.49-.23,.85-.23,1.28,.08,.82,.58,1.67,1.12,2.61,1.75h-.01Z"/><path class="cls-1" d="M2.5,32.15c-.39,.94-.71,1.7-1.04,2.46-.11,.27-.16,.61-.36,.8-.04,.04-.09,.07-.14,.11-.38,.23-.91,.01-.96-.43,0-.04,0-.07,0-.12,.03-.33,.23-.64,.37-.96,.54-1.32,1.08-2.64,1.64-3.96,.33-.79,.55-.85,1.29-.46,1.41,.74,2.82,1.49,4.23,2.24,.09,.04,.17,.1,.26,.15,.38,.21,.58,.56,.31,.9-.16,.19-.64,.29-.87,.18-.89-.4-1.74-.9-2.61-1.36-.26-.13-.52-.25-.94-.46,.1,.44,.14,.74,.23,1.03,3.22,9.82,9.87,15.71,20.05,17.2,12.2,1.79,23.86-6.47,26.53-18.57,.36-1.63,.44-3.31,.64-4.97,.06-.45-.09-1.04,.63-1.02,.75,.02,.61,.66,.59,1.12-.36,9.09-4.32,16.18-11.92,21.06-13.96,8.95-32.78,1.86-37.62-14.07-.07-.23-.15-.45-.29-.86h0Z"/><path class="cls-1" d="M51.52,18.82c.4-.96,.72-1.73,1.04-2.49,.1-.25,.16-.55,.33-.73,.02-.02,.04-.04,.06-.05,.37-.31,.97-.13,1.04,.35,.01,.06,0,.12-.01,.18-.45,1.25-.98,2.47-1.49,3.7-.18,.43-.35,.87-.53,1.3-.21,.5-.55,.66-1.06,.39-1.54-.82-3.09-1.61-4.6-2.48-.05-.03-.09-.07-.13-.13-.26-.39,.02-.95,.48-.98,.07,0,.13,0,.18,.03,.94,.42,1.83,.94,2.74,1.42,.21,.11,.43,.2,.76,.36-.05-.32-.06-.53-.13-.73C47.23,9.4,40.89,3.43,31.08,1.66,18.12-.68,5.97,7.84,3.39,20.8c-.28,1.39-.33,2.83-.48,4.26-.05,.45,.06,1.03-.65,1-.7-.03-.58-.62-.57-1.07,.16-6.88,2.65-12.79,7.51-17.6C14.74,1.9,21.47-.5,29.21,.09c10.21,.77,19.12,8.08,22.04,17.97,.06,.19,.13,.37,.26,.77h0Z"/><path class="cls-1" d="M26.94,36.75c-6.28-.04-11.17-5.1-11.12-11.51,.04-6.11,5.14-11.09,11.3-11.03,6.24,.06,11.15,5.13,11.09,11.47-.06,6.15-5.12,11.11-11.27,11.07h0Zm.13-1.24c5.52-.06,9.95-4.58,9.92-10.09-.04-5.52-4.59-10.05-10.03-9.98-5.53,.07-9.95,4.59-9.91,10.09,.04,5.54,4.57,10.04,10.02,9.98Z"/><path class="cls-1" d="M27.63,24.37c1.09-.66,2.01-1.21,2.92-1.76,.19-.11,.38-.31,.57-.31,.28,0,.64,.06,.8,.25,.1,.12,0,.64-.17,.74-1.47,.94-2.95,1.85-4.46,2.71-.43,.24-.87,.02-.87-.54-.02-2.36-.02-4.73,.02-7.09,0-.2,.36-.53,.59-.56,.48-.07,.59,.33,.59,.73,0,1.63,0,3.25,0,4.88v.95Z"/></g></g></svg>