<?xml version="1.0" encoding="UTF-8"?><svg id="Layer_2" xmlns="http://www.w3.org/2000/svg" viewBox="0 0 58.05 43.48"><defs><style>.cls-1{fill:#fff;}</style></defs><g id="Layer_1-2"><g><path class="cls-1" d="M57.89,27.5c.01-4.11,.11-8.21,.14-12.32,.01-2.13-.21-4.28-.04-6.4,.15-1.86-.39-3.35-1.82-4.34-1.44-1-3.02-1.91-4.67-2.47C45.54-.07,39.39-.35,33.19,.34c-3.54,.39-7.03,1.07-10.2,2.8-2.34,1.27-3.94,2.83-3.69,5.99,.01,.18,.02,.37,.03,.55l1.01,.98c1.26,1.23,2.77,2.19,4.44,2.78,10.4,3.69,20.75,3.22,31.26-1.4,0,1.58,.2,3.38-.08,5.1-.14,.89-.97,1.86-1.76,2.43-2.37,1.73-5.19,2.38-8.03,2.84-4.55,.73-9.08,.89-13.55,.25l2.32,2.26c7.02,.67,14.03-.55,21.09-3.67,0,1.62,.2,3.49-.09,5.28-.14,.88-1.05,1.93-1.89,2.33-2.13,1.02-4.35,2-6.64,2.48-5.38,1.12-10.76,1.31-16.07,.34l-1.49,1.65c8.74,1.97,17.42,1.01,26.18-2.87,0,1.64,.17,3.5-.08,5.3-.11,.81-.93,1.82-1.69,2.18-2.2,1.04-4.47,2.09-6.84,2.6-6.93,1.5-13.88,1.34-20.68-.8-.66-.21-1.31-.49-1.94-.81l-1.4,1.55c.74,.39,1.5,.74,2.28,1,7.26,2.41,14.67,2.48,22.12,1.06,2.67-.51,5.25-1.32,7.54-2.84,1.81-1.2,2.84-2.77,2.7-5.06-.14-2.37-.18-4.76-.17-7.13h.02Zm-3.2-17.5c-1.37,.95-2.93,1.73-4.52,2.23-4.99,1.59-10.13,1.84-15.32,1.44-3.27-.25-6.5-.75-9.52-2.08-1.13-.49-2.23-1.15-3.17-1.94-1.29-1.09-1.37-2.38-.03-3.38,1.46-1.09,3.13-1.99,4.84-2.6,3.76-1.34,7.72-1.6,11.83-1.68,4.47,.13,9.04,.5,13.35,2.36,.88,.38,1.75,.85,2.51,1.43,1.81,1.38,1.89,2.93,.04,4.22h-.01Z"/><path class="cls-1" d="M9.19,34.33c-.24,0-.49-.09-.68-.27L.32,26.41c-.21-.19-.32-.46-.32-.74s.13-.55,.34-.74l8.19-7.26c.41-.37,1.05-.33,1.41,.08,.37,.41,.33,1.05-.08,1.41l-7.36,6.53,7.38,6.89c.4,.38,.43,1.01,.05,1.41-.2,.21-.46,.32-.73,.32v.02Z"/><path class="cls-1" d="M22.31,34.33c-.28,0-.55-.11-.75-.34-.37-.41-.33-1.05,.08-1.41l7.36-6.53-7.38-6.9c-.4-.38-.43-1.01-.05-1.41,.38-.4,1.01-.42,1.41-.05l8.19,7.65c.21,.19,.32,.46,.32,.74s-.13,.55-.34,.74l-8.19,7.26c-.19,.17-.43,.25-.66,.25h.01Z"/><path class="cls-1" d="M12.85,39.65c-.08,0-.15,0-.23-.03-.54-.13-.87-.67-.74-1.2l5.91-24.9c.13-.54,.67-.87,1.2-.74,.54,.13,.87,.67,.74,1.2l-5.91,24.9c-.11,.46-.52,.77-.97,.77Z"/></g></g></svg>