<?xml version="1.0" encoding="UTF-8"?><svg id="Layer_2" xmlns="http://www.w3.org/2000/svg" viewBox="0 0 66 47.01"><defs><style>.cls-1{fill:#fff;}</style></defs><g id="Layer_1-2"><g><path class="cls-1" d="M19.94,33.48v9.01c-2.58,0-5.04,.05-7.51-.03-1.07-.04-1.61,.18-2.06,1.31-.95,2.44-3.64,3.68-6.11,3.09C1.61,46.22-.06,44,.03,41.21c.08-2.48,2.02-4.69,4.49-5.1,2.62-.43,5.12,.95,6.02,3.49,.28,.8,.67,.99,1.45,.96,1.93-.05,3.86-.02,5.94-.02v-9h9.34c.73,0,1.57-.05,1.59,.94,.02,1.08-.88,1.01-1.64,1.01h-7.29Zm-14.46,11.56c1.91-.03,3.54-1.68,3.52-3.59-.02-1.9-1.7-3.53-3.61-3.49-1.92,.04-3.5,1.71-3.45,3.64,.05,1.87,1.69,3.46,3.54,3.44Z"/><path class="cls-1" d="M19.93,4.6V13.51h6.69c.4,0,.85-.12,1.16,.04,.42,.2,.37,1.84-.02,1.86-2.28,.09-4.57,.04-6.85,.04h-2.88V6.45c-2.35,0-4.55-.03-6.74,.04-.25,0-.56,.56-.7,.91-.92,2.23-2.88,3.58-5.24,3.55-2.27-.04-4.3-1.5-5.05-3.63C-.68,4.48,.78,1.39,3.58,.34c2.8-1.03,5.91,.34,6.96,3.19,.28,.77,.62,1.01,1.41,.99,2.52-.05,5.04-.02,7.57,0,.08,0,.15,.03,.41,.08Zm-10.93,.9c.02-1.9-1.63-3.55-3.55-3.56-1.85,0-3.47,1.58-3.51,3.47-.04,1.94,1.55,3.6,3.47,3.61,1.93,0,3.57-1.59,3.58-3.51h0Z"/><path class="cls-1" d="M19.58,24.46c-2.44,0-4.9,.04-7.34-.02-.93-.02-1.43,.15-1.79,1.16-.85,2.33-3.18,3.61-5.67,3.33-2.26-.25-4.26-2.13-4.68-4.41-.44-2.35,.74-4.79,2.85-5.89,2.15-1.11,4.75-.73,6.41,1.03,.5,.53,.97,1.19,1.17,1.88,.26,.91,.78,.99,1.56,.98,5.01-.03,10.02-.02,15.03-.02h.35c.74-.04,1.43,.11,1.41,1.01-.02,.82-.68,.93-1.37,.93-2.65-.02-5.28,0-7.93,0h0Zm-14.17,2.58c1.91,.03,3.58-1.61,3.61-3.51,.03-1.9-1.61-3.55-3.54-3.57-1.9-.03-3.55,1.64-3.54,3.56,0,1.86,1.62,3.49,3.47,3.52Z"/><path class="cls-1" d="M31.74,31.21c0-3.28-.02-6.55,0-9.83,.03-3.48,.34-6.99,.07-10.45-.22-2.8,1.19-4.17,3.25-5.3,2.8-1.53,5.87-2.13,9-2.48,5.47-.61,10.89-.35,16.14,1.45,1.46,.5,2.85,1.3,4.12,2.18,1.26,.88,1.74,2.19,1.61,3.84-.15,1.87,.05,3.78,.04,5.66-.03,3.63-.11,7.26-.12,10.89,0,2.1,.02,4.21,.15,6.3,.12,2.02-.79,3.41-2.38,4.47-2.03,1.34-4.3,2.05-6.65,2.51-6.58,1.26-13.11,1.19-19.51-.94-1.33-.44-2.59-1.16-3.78-1.93-1.37-.88-2.05-2.23-1.94-3.93,.05-.82,0-1.64,0-2.47h0ZM49,4.62c-3.62,.08-7.12,.3-10.43,1.49-1.51,.54-2.98,1.34-4.27,2.3-1.18,.88-1.11,2.02,.03,2.99,.83,.7,1.8,1.28,2.8,1.72,2.66,1.18,5.51,1.61,8.4,1.84,4.58,.35,9.11,.12,13.51-1.27,1.4-.44,2.78-1.13,3.99-1.97,1.63-1.14,1.57-2.52-.04-3.73-.67-.51-1.44-.93-2.21-1.26-3.79-1.65-7.83-1.98-11.77-2.09h0Zm-15.53,25.14c0,1.26-.11,2.65,.04,4.02,.09,.78,.45,1.76,1.02,2.18,1.15,.86,2.47,1.59,3.83,2.02,6,1.9,12.13,2.03,18.24,.71,2.08-.45,4.08-1.38,6.03-2.3,.67-.32,1.39-1.21,1.49-1.93,.22-1.59,.07-3.24,.07-4.69-10.27,4.56-20.42,4.56-30.74-.03h0Zm30.75-16.26c-10.34,4.55-20.5,4.56-30.74-.02,0,1.26-.11,2.65,.04,4.02,.08,.75,.41,1.71,.96,2.12,1.15,.86,2.46,1.61,3.82,2.05,5.64,1.86,11.41,1.94,17.22,1,2.5-.41,4.99-.98,7.08-2.51,.69-.5,1.42-1.36,1.55-2.16,.25-1.52,.07-3.11,.07-4.51h0Zm-30.75,8.12c0,.89,.11,1.91-.02,2.89-.31,2.33,.9,3.62,2.8,4.51,.49,.23,.97,.45,1.47,.63,6.2,2.1,12.52,2.24,18.87,.92,2.02-.42,3.98-1.29,5.86-2.19,.74-.35,1.54-1.28,1.67-2.06,.26-1.58,.08-3.23,.08-4.67-10.28,4.55-20.44,4.55-30.73-.03h0Z"/></g></g></svg>